<?xml version="1.0" encoding="UTF-8" standalone="no"?>
<svg xmlns="http://www.w3.org/2000/svg" xmlns:xlink="http://www.w3.org/1999/xlink" width="101.196mm" height="223.488mm" viewBox="95.143501 -207.518768 101.196205 223.488068">
    <path transform="matrix(0.873362,0,0,-0.873362,33.894302,15.908699)" style="stroke:#000000;stroke-width:0.057250mm;fill:none" d="M105.176292,254.929993C89.767593,251.89769,75.291069,237.908173,71.099907,222C70.218399,218.654083,69.989441,195.315872,70.207169,131L70.5,44.5L73.384735,37.5C79.41655,22.86339,88.873909,12.638633,102.5,6.022226C119.338257,-2.153906,136.673279,-2.09963,153.927322,6.183246C168.888153,13.365256,180.21434,27.207571,184.456589,43.494621C185.769806,48.536411,186,58.941109,186,113.255554L186,177.090912L183.545456,179.545456C180.436966,182.653946,176.88884,182.668427,173.305771,179.587265L170.5,177.17453L169.993912,112.337265C169.440735,41.46867,169.766098,45.183708,163.241364,35.237709C158.723389,28.350739,153.003906,23.46574,145.017303,19.672588C139.733063,17.162895,136.934204,16.517185,129.877716,16.17981C116.256058,15.528551,106.581787,19.462187,97.069702,29.519819C90.565353,36.397209,87.293205,43.478642,85.947762,53.589409C85.263931,58.728294,85.001076,88.829567,85.197548,139.5C85.497063,216.743378,85.520729,217.544846,87.637329,222.122406C90.545784,228.412537,95.870674,234.070435,101.670235,237.032913C108.272957,240.40564,120.463402,240.52182,126.61647,237.27066C133.284683,233.747299,136.693069,230.301849,139.941971,223.800217L143,217.680557L143,147.290619C143,69.607323,143.269958,72.964569,136.701447,68.959518C130.39328,65.113197,120.183578,67.28833,116.81382,73.196487C115.818054,74.942352,115.37896,84.734695,115,113.646584C114.531868,149.362,114.378593,151.927216,112.595009,153.896576C109.712784,157.079041,103.756554,156.777252,101.029686,153.310608C98.945709,150.66127,98.918579,150.039688,99.207108,111.560616L99.5,72.5L102.202667,67.376648C113.870033,45.259243,144.546326,45.613602,156.164566,68L158.5,72.5L158.785217,143.5C159.108887,224.069916,159.135361,223.71814,151.915955,234.767136C141.330673,250.967438,123.696434,258.574615,105.176292,254.929993z"/>
</svg>
