<?xml version="1.0" encoding="UTF-8" standalone="no"?>
<svg xmlns="http://www.w3.org/2000/svg" xmlns:xlink="http://www.w3.org/1999/xlink" width="29.660mm" height="39.561mm" viewBox="131.174561 -133.478729 29.659592 39.561104">
    <path transform="matrix(0.020707,0,0,-0.020707,128.390167,-91.144653)" style="stroke:#000000;stroke-width:2.414639mm;fill:none" d="M1167.192871,2043.97168C1148.44397,2041.406372,1132.287231,2033.0896,1108,2013.501953C1092.299927,2000.839844,1071.637817,1979.036621,1056.795044,1959.469238C1048.789185,1948.914795,1033.549927,1924.983887,1025.293091,1910C999.407349,1863.02417,987.217346,1839.088013,971.81958,1805C961.878052,1782.991211,957.742676,1772.374268,949.812439,1748.5C945.975891,1736.949951,941.137695,1723.900024,939.060852,1719.5C931.820068,1704.159668,923.607666,1695.775513,912.545227,1692.430054C905.31897,1690.244751,885.585632,1689.513428,871.5,1690.908936C846.201233,1693.415405,832.20697,1698.763428,821.766357,1709.915405C815.04895,1717.090454,814.754944,1717.505249,795.528809,1746.94165C780.397034,1770.109375,772.705505,1780.554199,746.828857,1813.074585C669.76123,1909.928833,603.602417,1970.549927,539.5,2003.049438C520.239258,2012.814453,511.194672,2015.41333,496.786163,2015.32251C486.482086,2015.257446,485.880798,2015.131958,481.063782,2012.040894C470.755035,2005.425781,459.654144,1991.027832,451.474792,1973.663574C442.734436,1955.108276,437.149597,1935.463745,426.978882,1887.5C411.131805,1812.766968,407.612213,1780.326904,400.994354,1648C399.599854,1620.116577,399.805328,1569.838379,401.503113,1523.5C402.309174,1501.5,402.978241,1458.300049,402.989899,1427.5C403.015411,1360.194702,403.93277,1336.673462,408.567017,1284.5C410.658508,1260.953491,412.16806,1249.380737,419.067566,1204C429.194336,1137.392212,438.275085,1088.899414,447.568359,1051.800903C449.45575,1044.266357,451,1037.696411,451,1037.201172C451,1036.705811,446.612488,1037.131958,441.25,1038.148315C417.491333,1042.651123,408.989044,1043.434204,383.5,1043.467407C368.202789,1043.487305,354.424835,1042.977173,348,1042.152954C332.730316,1040.193848,312.566742,1036.18396,306.418518,1033.883667C298.296234,1030.844727,293.570313,1023.829712,297.200012,1020.200012C299.141449,1018.258545,301.497406,1018.803162,304.7966,1021.956055C308.579559,1025.571289,314.226868,1027.266968,333,1030.424927C363.903442,1035.623413,392.396667,1036.145264,421,1032.036743C433.74884,1030.205444,453.958069,1026.438354,454.484833,1025.795044C454.617676,1025.632813,458.45813,1014.25,463.019135,1000.5C467.58017,986.75,473.041748,970.823914,475.155975,965.108765C477.270172,959.393555,479,954.150391,479,953.457336C479,952.723267,473.051056,950.229736,464.75,947.484314C432.002655,936.653748,415.26474,928.06842,374.930267,901.413269C357.338318,889.787598,349,882.763062,349,879.568542C349,877.755798,351.720856,875,353.51062,875C354.262878,875,357.043243,876.881714,359.689178,879.18158C364.559143,883.414551,395.099548,903.867065,409.15332,912.307068C418.317139,917.810425,438.377655,927.991821,446.014313,931.015259C449.031433,932.209778,458.618195,935.608643,467.318176,938.568359L483.136383,943.949585L486.283661,936.724792C493.159637,920.940491,507.381561,894.961304,517.336792,880C534.622559,854.021851,559.667053,832.987549,595.492188,814.358887C602.326843,810.804993,606.842651,807.917725,605.992188,807.645569C605.171509,807.382874,598.388672,806.654541,590.91925,806.026978C576.496216,804.815186,570.802368,805.073059,545.69928,808.075195C496.653534,813.940613,471.442749,812.637878,447.30191,802.990479C428.51358,795.482117,415.220428,782.661255,406.483215,763.621887C398.649841,746.552124,397.897736,730.348816,404.219086,714.84375C411.667297,696.574707,425.455261,679.770935,442,668.799194C470.712128,649.758484,497.142548,642.987244,550.5,641.002441C564.25,640.490967,584.049988,639.061157,594.5,637.825073C625.692505,634.135498,662.076721,634.978027,688.141052,639.993347C701.577698,642.578857,741.104553,653.136047,755.453186,657.97168C774.237549,664.302185,779.964355,663.088928,781.561218,652.440491C782.240662,647.909302,780.562195,576.750549,779.457642,563.262573C778.617615,553.00415,777.954773,552.451904,770.839478,556.081909C766.98468,558.048462,766.786194,558.366943,767.256714,561.831909C767.53064,563.849365,769.796021,571.125,772.290894,578C777.690002,592.878052,779.37085,603.007385,777.927551,611.969177C774.967773,630.347839,761.914795,641.246704,743,641.132629C726.404968,641.032532,714.024353,633.782837,689,609.512085L678.5,599.328308L668,600.193665C662.224976,600.669617,648.5,603.096436,637.5,605.586609C610.272278,611.750427,604.843506,612.769958,587.5,614.976318C555.571716,619.038147,499.828156,620.006531,471.5,616.991516C445.501038,614.224426,403.392456,606.553772,383.5,600.961121C367.359406,596.423279,347.398987,588.751221,331.5,580.974182C299.829437,565.482422,242.316666,532.627014,224.118835,519.630371C199.925964,502.352142,178.011795,480.124542,154.880188,449.401337C141.819412,432.054138,136.992294,422.278564,134.932877,409.00531C131.64769,387.831818,145.19899,355.990326,163.250977,342.466217C175.658554,333.170746,194.191757,327,209.702118,327C241.406906,327,264.172516,341.16687,291.677307,378.012573C306.489838,397.85556,314.526428,405.356293,333,416.580139C358.806274,432.259033,434.000427,467.646271,457.438049,475.14212C481.874725,482.957489,517.795898,487.922119,555.75,488.729767C569.087524,489.01358,580,488.949066,580,488.586365C580,488.223694,575.899231,483.354401,570.887146,477.765717C559.323608,464.871796,552.740234,455.610199,547.951843,445.5C544.052185,437.266083,541,425.192413,541,418C541,404.901794,548.084229,386.851959,558.929321,372.318176C562.287231,367.818176,573.014282,355.870209,582.767273,345.76712C611.274658,316.23645,626.896484,299.246918,639.289612,284.296234C651.538818,269.519165,663.139038,257.993652,670.36145,253.424393L674.704407,250.676834L674.216675,241.352295C673.35614,224.901108,677.549805,191.588333,682.506592,175.5C685.73761,165.01297,689.587219,158.53511,697.697449,149.937866C712.684753,134.050507,734.147827,129.629135,757.777649,137.561401C767.721497,140.899445,773.037537,144.135666,778.430969,150.13443C783.856079,156.168472,786.22467,162.226807,788.98175,177.120926C791.811157,192.406158,796.262695,206.092361,801.016235,214.121353C805.315796,221.383438,813.90509,230.360855,827,241.279205C831.674988,245.177155,838.424988,251.135956,842,254.520981C845.575012,257.906006,850.974976,262.409119,854,264.527893C870.983643,276.423615,884.06366,290.119324,893.497559,305.884644C895.805176,309.740967,901.459229,321.357025,906.062134,331.69809C929.772095,384.966217,940.66687,399.851318,960.18811,405.648499C962.868347,406.444458,974.384949,408.857391,985.78064,411.01059C997.17627,413.163818,1013.025024,416.784698,1021,419.057007C1039.265991,424.261536,1043.242676,424.079498,1063.469849,417.112976C1082.671997,410.499451,1091.268799,408.654266,1122.088745,404.531403C1136.712646,402.575134,1151.309448,400.289001,1154.526245,399.451172C1171.376709,395.062164,1180.925293,387.040924,1189.462158,370.103546C1193.287964,362.513153,1220.555176,298.4729,1230.168457,274.5C1242.350342,244.121979,1248.638184,231.739166,1255.891479,223.843094C1266.383545,212.421417,1274.092041,209.344879,1289.796143,210.31163C1299.495605,210.908737,1303.665771,211.882599,1314,215.96405C1320.97998,218.720779,1377.167114,247.863037,1386.581177,253.609329C1395.315796,258.940887,1402.292847,266.256561,1405.819946,273.781921C1408.318115,279.111938,1408.498047,280.416229,1408.471924,293C1408.447144,304.984619,1408.147827,307.341888,1405.805542,314C1397.06189,338.854401,1383.752808,357.784332,1368.645142,366.854614C1357.561157,373.509094,1351.47229,375.387634,1341,375.383698C1332.794067,375.380585,1330.273926,374.936646,1322.5,372.124817C1317.550049,370.334412,1312.762329,368.63443,1311.860718,368.347107C1309.731689,367.668579,1298.513184,387.959656,1290.490234,407C1265.384277,466.583038,1259.349854,478.405701,1247.82312,490.593536C1235.63501,503.480621,1223.200195,508.140076,1194.651367,510.517548C1184.834595,511.335052,1176.411743,512.245544,1175.934082,512.540771C1175.456299,512.83606,1176.803101,516.547668,1178.92688,520.788818C1189.691284,542.284302,1195.78772,577.350281,1193.192505,602.841248C1191.791382,616.602905,1185.223999,651.050598,1180.007446,672C1176.197876,687.299133,1170.757446,713.18042,1169.4823,722.070496C1168.828735,726.627075,1168.843872,726.656677,1174.463745,731.792908C1182.257324,738.915771,1187.974487,740.678955,1227,747.995178C1246.604614,751.670532,1267.744629,757.294006,1289,764.487854C1321.916992,775.628601,1346.520874,786.9021,1377.5,805.038574C1401.807495,819.269165,1416.826904,827.419067,1440.632202,839.295837C1463.811646,850.860291,1474.394897,857.260376,1491.731812,870.197876C1507.193481,881.735962,1515.348145,890.738647,1520.991211,902.5C1526.219727,913.3974,1527.359741,919.42981,1526.778442,933.122925C1526.240356,945.796875,1524.590576,951.827942,1517.784912,966C1510.626465,980.906799,1497.001831,992.07251,1476.5,999.833618C1460.553223,1005.870361,1446.911377,1005.072693,1426.261719,996.896118C1416.183716,992.905579,1399.802856,984.591492,1391.636597,979.322205C1387.861694,976.886475,1384.598999,975.067688,1384.38623,975.280518C1384.17334,975.493286,1385.821411,980.129761,1388.048462,985.583679C1393.111816,997.983643,1398.878174,1016.493652,1404.533203,1038.5L1408.901733,1055.5L1417.073364,1055.224854C1428.640259,1054.835327,1448.239868,1050.782837,1468.822266,1044.524902C1502.735962,1034.213623,1521.954468,1026.419678,1542.282227,1014.733582C1559.076294,1005.078918,1562.4552,1003.638062,1565.048096,1005.025696C1566.490723,1005.797791,1567.025757,1006.922607,1566.809937,1008.729675C1566.555664,1010.858704,1564.434448,1012.565979,1555,1018.234741C1534.307739,1030.667969,1515.481201,1039.14502,1489,1047.952515C1459.788086,1057.668335,1436.032104,1063.370972,1419.46582,1064.644287C1414.3573,1065.036987,1411.000122,1065.7323,1411.000122,1066.397583C1411.000244,1067.003906,1411.644775,1070.875,1412.432495,1075C1414.007202,1083.246826,1417.520996,1108.77124,1418.489624,1119C1419.588135,1130.598877,1419.390259,1130.255859,1427.904541,1135.320557C1448.237549,1147.415527,1465.281982,1152.150757,1513,1158.961792C1528.675049,1161.199097,1542.722534,1163.521362,1544.216797,1164.122314C1545.710938,1164.723389,1547.230591,1166.151245,1547.59375,1167.295532C1548.503052,1170.160156,1544.61792,1173.288452,1541.085693,1172.535767C1539.663574,1172.232666,1525.900024,1170.170166,1510.5,1167.952515C1479.402466,1163.474121,1468.213013,1161.34021,1455.261597,1157.417969C1445.906372,1154.584839,1433.407471,1149.25647,1425.911499,1144.90564L1421.322998,1142.242432L1421.786255,1207.371216C1422.441162,1299.467773,1420.435303,1329.386353,1409.005127,1398C1406.852051,1410.925049,1403.473877,1432.525024,1401.498291,1446C1395.170654,1489.157104,1390.474731,1508.463257,1378.899414,1538.907959C1361.998535,1583.360107,1358.523926,1595.347778,1352.477661,1630.064331C1341.877441,1690.928955,1336.12085,1717.555542,1323.953613,1762C1316.618408,1788.794189,1312.855225,1799.89917,1300.232788,1832C1286.892944,1865.925171,1282.988892,1876.811401,1268.378784,1920.823242C1245.04834,1991.10437,1235.936401,2009.776245,1215.822266,2028.52063C1202.080933,2041.326172,1185.759277,2046.512085,1167.192871,2043.97168z"/>
    <path transform="matrix(0.020707,0,0,-0.020707,128.390167,-91.144653)" style="stroke:#000000;stroke-width:2.414639mm;fill:none" d="M1190.909058,2033.105469C1199.167236,2030.535156,1205.649658,2026.174683,1213.354736,2018.006836C1230.161377,2000.190918,1236.86853,1985.483032,1261.012817,1913.5C1276.466309,1867.427002,1280.314575,1856.731201,1291.774414,1828C1302.638672,1800.761963,1312.731567,1771.398193,1311.613647,1770.280396C1311.403687,1770.070313,1300.717163,1778.32312,1287.865845,1788.619873C1256.709961,1813.582886,1241.030151,1823.815552,1227.5,1828.014404C1219.128662,1830.612427,1219.255005,1830.497681,1218.500977,1836.181519C1217.602661,1842.953369,1211.949097,1865.086304,1208.45752,1875.5C1201.869263,1895.149902,1190.278931,1910.709473,1179.517212,1914.351074C1168.678955,1918.018677,1157.599487,1917.342529,1147.85376,1912.418823C1141.36438,1909.140259,1129.49231,1899.377197,1123.216187,1892.157959L1117.932373,1886.0802L1106.716187,1894.496216C1093.858398,1904.144043,1082.040771,1911.407593,1073.758301,1914.753418C1065.454102,1918.10791,1053.644531,1919.635986,1046.361328,1918.298218C1043.137573,1917.706055,1040.374756,1917.334473,1040.221558,1917.472534C1039.354614,1918.254028,1065.661499,1955.958862,1074.274658,1966.279663C1097.5448,1994.163452,1123.385254,2016.546997,1144.879761,2027.439087C1159.130371,2034.6604,1178.322021,2037.022949,1190.909058,2033.105469z"/>
    <path transform="matrix(0.020707,0,0,-0.020707,128.390167,-91.144653)" style="stroke:#000000;stroke-width:2.414639mm;fill:none" d="M517.895508,2002.646973C535.202759,1996.499634,574.487732,1972.947632,597.5,1954.922729C640.011353,1921.624756,691.182983,1868.352661,741.114014,1805.413574C768.680786,1770.665161,773.770203,1763.56604,799.480408,1724C815.075684,1700.000122,826.516663,1690.797852,847.321289,1685.520264C870.68042,1679.594727,910.439819,1679.461792,921.58429,1685.271973C927.560852,1688.387817,934.894592,1694.993896,939.4245,1701.341919C945.837097,1710.328491,949.812988,1719.572754,959.43811,1747.875488C968.931458,1775.790649,971.688782,1782.525391,987.983276,1817.595825C997.845886,1838.822998,1013.685913,1869.557861,1031.435547,1901.907593C1036.449829,1911.046143,1038.982178,1912.277832,1053,1912.395874C1061.349731,1912.466187,1063.286987,1912.131714,1069,1909.633057C1080.481689,1904.61145,1113.818481,1881.133301,1112.498779,1878.998047C1112.193726,1878.504395,1108.994629,1873.69043,1105.389771,1868.300293C1092.202271,1848.581787,1082.692993,1829.864136,1071.706421,1802C1066.511841,1788.825317,1063.585205,1778.950195,1057.184814,1753C1048.497437,1717.777588,1047.257202,1710.472412,1048.917603,1704.305786C1051.491333,1694.748047,1057.252075,1690.464844,1072,1687.143799C1076.675049,1686.091064,1086.574951,1683.614258,1094,1681.639771C1101.425049,1679.665283,1116.724976,1676.452759,1128,1674.500732C1153.341431,1670.113403,1162.872192,1667.572876,1184.512817,1659.436157C1217.043335,1647.204956,1228.318115,1646.118042,1236.613525,1654.413452C1243.136719,1660.936768,1243.322876,1668.168213,1237.581055,1692C1231.510986,1717.193848,1226.053833,1750.501831,1224.555664,1771.5C1223.131592,1791.458618,1220.933838,1817.794189,1220.44519,1820.75354L1219.908081,1824.00708L1224.935547,1822.025391C1238.371826,1816.729248,1255.629028,1806.129639,1270.408325,1794.095093C1274.308716,1790.919067,1282.900024,1784.354858,1289.5,1779.508057C1300.700684,1771.282471,1313.642456,1760.735962,1315.165039,1758.592896C1316.257324,1757.055542,1327.676514,1709.973755,1332.044067,1689C1334.277466,1678.275024,1338.125854,1657.800049,1340.596191,1643.5C1348.585205,1597.254517,1352.834106,1580.969604,1365.252686,1549C1381.407227,1507.412354,1385.131348,1492.775757,1393.049927,1439.749268C1395.287964,1424.762207,1398.670654,1403.305664,1400.567017,1392.068115C1405.438232,1363.201172,1407.580566,1346.271729,1410.19812,1315.957764C1412.28479,1291.792969,1412.479736,1283.953613,1412.447388,1225.5C1412.427856,1190.300049,1412.046631,1155.723633,1411.60022,1148.663574C1410.795532,1135.935913,1410.762207,1135.804565,1407.667603,1133.163574C1396.744629,1123.841675,1393.803467,1120.393555,1392.990234,1115.956421C1392.541016,1113.505371,1392.276855,1111.395142,1392.402954,1111.26709C1393.434082,1110.220459,1400.209351,1113.770508,1403.678223,1117.174927C1406.032104,1119.485107,1408.264038,1121.069336,1408.637939,1120.695435C1409.483887,1119.849365,1406.618896,1095.699829,1403.691284,1079L1401.5,1066.5L1396,1065.932983C1390.771118,1065.393921,1384.963745,1063.358887,1385.031372,1062.089478C1385.116089,1060.501099,1390.731567,1057.671875,1394.68335,1057.22644L1399.129395,1056.725342L1398.442383,1052.612671C1397.503418,1046.991943,1390.604614,1021.903381,1386.3125,1008.5C1381.688599,994.061157,1374.847046,977.328979,1369.752319,968C1359.137329,948.562683,1340.160645,921.972046,1324.626465,904.768616C1300.841309,878.427429,1250.68396,837.035767,1225.774658,823.192566C1208.233032,813.443909,1148.134644,793.531616,1112.413208,785.632751C1064.081787,774.945557,984.717346,765.640991,923,763.42627C887.222595,762.142395,812.790894,768.027588,744,777.579407C700.010803,783.687439,680.559143,788.31073,652.251343,799.386292C587.526367,824.710266,550.65686,848.923584,527.703186,881.180786C517.818054,895.072571,495.240295,936.594299,493.453949,944.167114C492.838287,946.777039,492.949829,946.847351,498.662384,947.449707C508.397003,948.476013,512.209595,951.647583,508.349365,955.507813C506.672852,957.184326,501.521301,957.258545,490.562653,955.76416C488.991943,955.549988,488.096222,956.919373,485.829712,963C479.777954,979.235596,465.844116,1021.03241,466.163757,1021.991272C466.353271,1022.559753,468.573639,1021.904602,471.205383,1020.503601C477.019226,1017.40863,480.627045,1017.249573,481.515533,1020.04895C482.89859,1024.406494,478.542328,1027.798828,463.91745,1033.753052C461.542084,1034.720215,460.960236,1036.316895,456.665863,1053.652222C447.786041,1089.498169,438.396484,1139.295166,429.070984,1200C421.491699,1249.337524,419.541473,1264.697876,417.052246,1294.660767C413.654694,1335.557251,413.074738,1352.395142,412.545685,1425.5C412.263062,1464.550049,411.503906,1507.525024,410.858673,1521C410.21344,1534.474976,409.66684,1567.324951,409.644043,1594C409.608795,1635.209839,410.009674,1649.339233,412.311035,1688C418.770111,1796.506836,421.633209,1819.175659,438.960602,1899C447.299072,1937.41394,452.972626,1956.036743,461.530945,1973.084717C469.084839,1988.131836,479.732941,2001.150513,487.305206,2004.597046C492.465759,2006.945923,508.707092,2005.910522,517.895508,2002.646973z"/>
    <path transform="matrix(0.020707,0,0,-0.020707,128.390167,-91.144653)" style="stroke:#000000;stroke-width:2.414639mm;fill:none" d="M1177.53125,1904.880249C1188.937256,1899.518921,1197.792358,1882.794434,1205.530151,1852C1209.637329,1835.654419,1211.345581,1822.7146,1213.979248,1788C1216.410156,1755.958862,1216.574829,1754.412109,1219.569824,1735.5C1222.396118,1717.653809,1225.881592,1700.274536,1229.487549,1686.04895C1232.330688,1674.83313,1232.960083,1665.662476,1231.122559,1662.229004C1230.487183,1661.041748,1228.232178,1659.550659,1226.11145,1658.915283C1220.533569,1657.244019,1211.102051,1659.44165,1189.918579,1667.348633C1163.10437,1677.3573,1157.481689,1678.815186,1120,1685.477295C1112.025024,1686.894897,1098.974976,1689.792236,1091,1691.915894C1083.025024,1694.039551,1073.459839,1696.552856,1069.744141,1697.501221C1060.484375,1699.864258,1058,1702.80603,1058,1711.407227C1058,1717.305664,1068.252319,1761.964722,1074.091187,1781.5C1078.64978,1796.751953,1092.656372,1828.618042,1102.136597,1845.30542C1119.461548,1875.80127,1138.228027,1897.479126,1153.5,1904.636963C1160.268921,1907.80957,1171.067017,1907.918823,1177.53125,1904.880249z"/>
    <path transform="matrix(0.020707,0,0,-0.020707,128.390167,-91.144653)" style="stroke:#000000;stroke-width:2.414639mm;fill:none" d="M1465.831665,993.477783C1479.090698,990.35199,1496.266724,980.392578,1503.389648,971.699951C1513.49646,959.365845,1520.262329,934.561768,1517.410034,920.300171C1516.830444,917.402466,1516.725586,917.358215,1511.471069,917.793945C1504.522583,918.370178,1498.458984,915.529297,1493.757568,909.494873L1490.308838,905.068176L1487.444824,908.057617C1484.553955,911.075012,1476.943726,914,1471.983887,914L1469.330688,914L1469.78186,921.793701C1470.158691,928.302368,1469.86438,930.444458,1467.996948,934.785339C1465.142212,941.421509,1459.568481,946.456726,1452.878052,948.443542C1442.66626,951.476135,1433.776978,949.829102,1421.776978,942.680908C1408.928467,935.027344,1402.847778,924.260559,1400.496216,905C1400.126831,901.974976,1398.964111,895.471069,1397.912354,890.546814C1395.580688,879.630798,1395.519775,875.814392,1397.606445,871.41687C1400.578369,865.154114,1405.317993,863.301086,1431.81311,858.043274L1450.126221,854.409119L1426.006226,842.270874C1411.388916,834.914673,1401.76001,830.598938,1401.565552,831.316284C1400.234741,836.227417,1391.858398,858.590088,1387.833008,867.978455C1382.207397,881.099182,1377.0271,890.44458,1365.925781,907.5C1361.629883,914.099976,1357.567871,921.555054,1356.899048,924.066772L1355.683228,928.633606L1361.729492,937.566772C1365.055054,942.480042,1369.381958,949.065918,1371.344849,952.202026C1373.437378,955.545166,1376.276123,958.60553,1378.206909,959.599731C1380.018066,960.532349,1385.587646,964.08252,1390.58374,967.489075C1407.010864,978.68988,1431.928711,990.286743,1446.5,993.512634C1454.450439,995.272827,1458.24646,995.26593,1465.831665,993.477783z"/>
    <path transform="matrix(0.020707,0,0,-0.020707,128.390167,-91.144653)" style="stroke:#000000;stroke-width:2.414639mm;fill:none" d="M1452.90918,938.683472C1460.072388,935.164612,1463.401855,925.512085,1460.961426,915.33905C1459.121582,907.669678,1459.946655,906.67865,1468.928833,905.769714C1477.996094,904.852173,1481.043457,903.411255,1483.248413,898.99884C1485.56665,894.359924,1485.459473,888.303223,1482.940308,881.569946C1479.140015,871.412964,1467.407349,864,1455.131836,864C1449.70752,864,1418.287231,869.778809,1411.370972,872.048462C1409.649902,872.61322,1407.423828,873.979126,1406.424194,875.083801C1404.779541,876.901123,1404.725586,877.635254,1405.857422,882.796143C1406.54541,885.933289,1408.202637,894.917969,1409.540039,902.762207C1413.489136,925.923462,1418.726807,933.289246,1435.486938,939.250916C1440.854492,941.160217,1448.365234,940.915588,1452.90918,938.683472z"/>
    <path transform="matrix(0.020707,0,0,-0.020707,128.390167,-91.144653)" style="stroke:#000000;stroke-width:2.414639mm;fill:none" d="M1366.233154,889.574585C1376.052368,873.119629,1391.091797,838.003174,1392.553833,828.116882L1393.088745,824.5L1369.794312,811.282532C1316.142212,780.839661,1278.193115,767.280457,1209.5,754.009277C1187.42688,749.744873,1176.230957,746.048218,1170.726318,741.207092C1167.97522,738.787598,1167.209229,740.661255,1166.839233,750.715393C1166.588623,757.52417,1166.078247,760.352295,1164.88501,761.544739C1163.398682,763.030029,1163.108154,762.952881,1161.23877,760.576477C1155.037354,752.692566,1158.886108,717.729614,1171.532227,667.067749C1173.944214,657.405457,1177.736084,639.657043,1179.95874,627.62677C1183.542358,608.230469,1183.99939,604.040649,1183.994141,590.62677C1183.982056,559.717041,1177.437988,533.75592,1164.953857,515.091919C1161.751587,510.304504,1155.05188,501.994598,1150.065796,496.625458C1141.149048,487.023895,1139.817749,484.582306,1142.199951,482.200012C1144.8479,479.552124,1147.690918,481.047394,1155.604736,489.25C1159.982544,493.787506,1164.784546,498.993713,1166.276001,500.819366L1168.987671,504.138763L1176.243774,503.070496C1180.234741,502.482941,1189.349976,501.563934,1196.5,501.028259C1211.377197,499.913635,1218.937988,498.202942,1227.592041,493.993469C1242.499268,486.74234,1250.984497,474.740662,1266.938843,438.340485C1274.113647,421.970978,1274.172607,422.726715,1264.928833,412.612549C1258.672241,405.766876,1247.687378,398.334259,1230.797974,389.518829C1215.656616,381.615753,1207.315796,378.229126,1201.096191,377.458893L1196.5,376.889709L1193.5,382.14502C1188.735596,390.49115,1179.343506,399.282074,1170.858032,403.337616C1160.516724,408.280212,1154.735229,409.547577,1124.316284,413.540009C1109.567261,415.4758,1093,418.193085,1087.5,419.57843C1075.600342,422.575745,1057.832642,428.020508,1056.683228,429.022003C1056.233887,429.413422,1058.258911,431.095734,1061.183228,432.760529C1068.138184,436.720001,1077.162964,445.333496,1074.833496,445.788788C1073.916992,445.967926,1068.966919,444.33905,1063.833496,442.169098C1058.700073,439.999115,1043.25,435.041016,1029.5,431.151123C1007.132751,424.823364,998.49884,422.846527,969.5,417.413483C947.753418,413.339203,936.844727,406.442108,925.330994,389.487427C918.897644,380.013885,910.77887,364.753448,903.525146,348.5C891.524902,321.611084,885.289307,309.563385,878.941101,301.001526C870.94281,290.214264,864.654175,284.234833,848.093628,271.670929C840.720154,266.076935,833.626587,260.670532,832.330078,259.656708C830.033325,257.860718,829.795593,257.867279,823.061096,259.912842C815.211914,262.296936,803.078613,269.956787,797.67218,275.941071C793.376648,280.69574,790.420654,286.240906,789.464417,291.338074C788.833923,294.698822,789.253235,295.822784,793.550964,302.291565C796.184937,306.256195,805.642822,319.174988,814.56842,331C823.494019,342.825012,836.734192,361.725006,843.991089,373C874.073425,419.738831,885.259766,432.536591,927.466431,468.5C955.813232,492.653748,963.98053,500.113586,977.624878,514.313721C991.630432,528.889648,998.521179,537.713928,1021.500244,570.5C1042.076782,599.858215,1047.974487,607.707886,1058.949707,620.345093C1076.885254,640.996582,1082.790649,648.31897,1103.502441,675.588257C1138.792114,722.050842,1143.361206,730.471985,1154.453613,769.493225C1156.954102,778.28949,1159,786.189636,1159,787.049011C1159,788.187622,1163.136963,789.913086,1174.25,793.409424C1206.228271,803.470337,1226.587402,812.074097,1241.206787,821.705322C1251.930786,828.770386,1277.824463,848.687805,1291.766602,860.596069C1307.43335,873.977295,1332.350952,898.646362,1341.506836,909.840149L1348.328613,918.180237L1353.722778,909.840149C1356.689575,905.253052,1362.319214,896.133545,1366.233154,889.574585z"/>
    <path transform="matrix(0.020707,0,0,-0.020707,128.390167,-91.144653)" style="stroke:#000000;stroke-width:2.414639mm;fill:none" d="M1513.282837,912.15509C1514.925171,911.506287,1514.830078,910.980103,1512.075317,905.475403C1509.119385,899.568604,1500.395264,888.360291,1497.48645,886.732483C1495.021362,885.352966,1493.99939,886.845154,1494.009766,891.809021C1494.035278,904.042786,1504.86853,915.479248,1513.282837,912.15509z"/>
    <path transform="matrix(0.020707,0,0,-0.020707,128.390167,-91.144653)" style="stroke:#000000;stroke-width:2.414639mm;fill:none" d="M528,800.525757C535.974976,799.737488,548.347229,798.396729,555.493896,797.546265C562.640503,796.695801,570.803772,796,573.63446,796C578.227356,796,579.738281,795.37146,587.676636,790.158875C599.121521,782.643799,603.117859,777.915283,606.931213,767.376465C611.221558,755.519592,612.642273,743.61731,611.183838,731.749695C609.283813,716.289368,604.971069,694.001099,602.338684,686.038147C597.894714,672.595459,588.953918,661.803467,578.71759,657.526489C576.871582,656.755127,568.863037,654.772705,560.920776,653.121033C547.00647,650.227417,545.988831,650.152283,532.990173,651.057495C516.029114,652.238708,491.773071,656.250061,481.422791,659.58551C471.503479,662.782043,456.636841,670.104004,447.171417,676.45459C426.976501,690.003906,411.087219,713.55127,409.312103,732.560791C407.624451,750.633423,420.444305,775.797729,437.227722,787.356934C445.643433,793.153015,463.335693,799.590698,475.5,801.282959C482.775635,802.295166,514.767029,801.83374,528,800.525757z"/>
    <path transform="matrix(0.020707,0,0,-0.020707,128.390167,-91.144653)" style="stroke:#000000;stroke-width:2.414639mm;fill:none" d="M645.539185,791.945435C674.60022,780.330627,694.197327,775.378662,734,769.592346C764.244385,765.195618,790.38678,762.162781,825,759.035156C895.465698,752.66803,914.257385,752.484314,978.5,757.534241C1010.831909,760.075806,1068.179077,767.349609,1091.593262,771.878784C1097.041992,772.9328,1101.648804,773.654907,1101.830688,773.483459C1102.329468,773.01355,1090.530518,748.492676,1081.635132,731.512817C1070.971924,711.158264,1063.988525,700.622375,1047.495483,680.005859C1039.792969,670.377625,1028.092896,654.458984,1021.495422,644.631042C1005.50531,620.811401,996.710938,610.43042,963.384338,576.03595C956.170776,568.591187,946.94574,558.69989,942.884338,554.055359C923.419189,531.795227,870.131409,477,867.948853,477C867.440857,477,868.205872,479.587494,869.648926,482.75C871.09198,485.912506,873.648376,492.325012,875.329834,497C878.076904,504.637604,878.392822,506.717499,878.443542,517.5C878.496033,528.657776,878.304932,529.897278,875.720215,535.160522C866.864258,553.194214,843.552551,559.066589,822.502441,548.566528C818.651062,546.645447,810.653992,541.26416,804.73114,536.608154C789.036804,524.270691,785.938904,523.786804,777.202026,532.308105C773.563538,535.856812,768,543.731812,768,545.333252C768,545.595642,770.685608,545.566833,773.967957,545.269165C778.514404,544.856934,780.534119,545.119934,782.447205,546.373413C787.664795,549.792114,788.271973,552.653931,789.157227,578C789.608643,590.924988,790.389221,611.400024,790.891907,623.5C792.133606,653.392639,790.973267,660.996704,784.198364,667.365051C778.012451,673.179749,770.00415,672.865234,750.004639,666.022339C730.44458,659.329712,693.580078,650.032593,676.770508,647.552795C665.275757,645.857056,632.422241,643.941956,625,644.535034C608.750549,645.833313,584.007446,648.505737,584.045227,648.958435C584.070068,649.256287,586.725952,651.144897,589.947144,653.155334C602.313965,660.873779,610.582581,675.722046,615.031189,698.199585C619.112305,718.820068,621,732.613403,621,741.812988C621,754.389893,617.249451,769.259033,611.336975,780.122192C608.62677,785.101746,598.000793,795.934326,595.692993,796.070313C595.036865,796.108948,595.400024,796.562622,596.5,797.07843C597.632385,797.609436,605.928406,797.808472,615.623352,797.537292L632.746643,797.058228L645.539185,791.945435z"/>
    <path transform="matrix(0.020707,0,0,-0.020707,128.390167,-91.144653)" style="stroke:#000000;stroke-width:2.414639mm;fill:none" d="M1149,784.475647C1149,782.870239,1139.437012,751.489868,1137.27478,746C1130.784302,729.520569,1121.30603,713.824707,1105.780029,693.844666C1101.226074,687.984192,1091.562622,675.384216,1084.305908,665.844666C1077.049072,656.305115,1065.402344,641.974976,1058.424072,634C1041.861084,615.071106,1035.055298,606.228271,1015.708801,578.5C1006.88269,565.849976,996.523376,551.300049,992.688049,546.166748C978.847717,527.642395,958.657776,507.101166,933.5,485.94873C894.443726,453.110565,877.028931,435.91806,860.621033,414C854.65094,406.024994,849.451111,399.154694,849.065857,398.732666C848.38385,397.985657,825,408.546326,825,409.601379C825,410.42099,834.744873,426.724945,839.26416,433.466431C846.206543,443.822632,851.714539,449.646851,872.420288,468.526062C893.29895,487.562927,924.888062,519.798523,945.419617,543.019226C951.975342,550.433655,963.468445,562.799988,970.959778,570.5C1003.234497,603.673706,1012.747803,614.935242,1029.741089,640.083374C1036.957275,650.762512,1046.524536,664,1051.001587,669.5C1065.362671,687.142456,1073.947144,699.012329,1081.157837,711.197693C1087.930542,722.642944,1113,772.795105,1113,774.898865C1113,775.954895,1114.543579,776.441284,1129,779.940369C1133.675049,781.07196,1139.525024,782.643188,1142,783.432007C1146.866821,784.983154,1149,785.301147,1149,784.475647z"/>
    <path transform="matrix(0.020707,0,0,-0.020707,128.390167,-91.144653)" style="stroke:#000000;stroke-width:2.414639mm;fill:none" d="M752.5,630.898132C757.761963,629.463257,766.094788,620.997803,767.770996,615.383972C770.433655,606.466492,769.44989,598.960449,763.274719,581.078857C757.878052,565.451599,757.549011,563.954712,757.542542,555C757.535889,545.861267,757.684937,545.219299,761.460754,538.118591C768.386475,525.09436,778.308655,517.072021,787.55365,517.021973C792.665344,516.994263,799.640564,520.441284,807.693909,526.974915C814.067017,532.145447,815,532.668335,815,531.069824C815,530.558228,821.75,513.740845,830,493.697845C838.25,473.654846,845,456.803528,845,456.250458C845,455.697388,844.245972,454.627289,843.324341,453.872437C840.365295,451.448822,830.320679,437.320435,823.453369,425.922638L816.782532,414.850891L808.141235,423.215149C803.38855,427.815521,793.875,436.499329,787,442.512543C760.137146,466.008148,745.268188,480.983429,722.473938,507.5C709.21698,522.921936,699.673157,533.367615,679.62793,554.395203L664.755859,569.996094L668.62793,574.737549C675.608887,583.28595,700.316162,608.158997,709.207092,615.58905C719.058899,623.822021,725.217163,627.687378,732.486938,630.201233C738.236145,632.18927,746.685974,632.483521,752.5,630.898132z"/>
    <path transform="matrix(0.020707,0,0,-0.020707,128.390167,-91.144653)" style="stroke:#000000;stroke-width:2.414639mm;fill:none" d="M545.19519,608.988403C581.966675,607.156494,595.982483,605.304138,628.764587,597.943481C641.269104,595.135864,655.675659,592.305908,660.779297,591.654785L670.058533,590.470886L656.873962,575.485413C649.622437,567.243469,636.621826,552.174988,627.983704,542C611.879211,523.030212,591.519043,500.093323,589.585022,498.74176C588.988281,498.324707,581.839844,498.219055,573.699585,498.506958C555.643555,499.145569,534.159607,497.824982,507,494.407013C475.572266,490.451904,461.495789,487.164215,440.954163,478.981323C424.981049,472.618347,376.505798,450.360992,359.007904,441.355804C340.333496,431.745117,340.403839,431.754761,329.154236,437.262177C314.3797,444.49527,285.280029,478.576233,272.9646,503.070404C267.978607,512.987061,261.43692,531.857117,262.608307,532.943909C263.098755,533.398926,270.700012,537.712524,279.5,542.529724C288.299988,547.346863,302.25,554.994873,310.5,559.52533C350.873566,581.696167,375.172913,590.845093,413.760529,598.403931C466.048676,608.646484,498.921295,611.293762,545.19519,608.988403z"/>
    <path transform="matrix(0.020707,0,0,-0.020707,128.390167,-91.144653)" style="stroke:#000000;stroke-width:2.414639mm;fill:none" d="M670.397705,556.75C683.448547,543.675232,705.417236,519.88623,720.496582,502.5C737.748535,482.608795,765.612061,454.657318,786,436.789795C794.525024,429.318665,804.363281,420.283783,807.862793,416.71225L814.225586,410.218567L802.862793,391.13916C796.613281,380.645508,791.090881,372.046326,790.590881,372.029877C787.975586,371.943909,751.215576,403.833405,733.527222,421.532867C719.022339,436.046814,698.537903,459.998535,669.840088,496C663.482971,503.975006,653.003845,516.006592,646.553101,522.736877C640.102417,529.467102,634.976563,535.395203,635.162292,535.9104C635.834656,537.77533,660.149902,565,661.143127,565C661.703918,565,665.86853,561.287476,670.397705,556.75z"/>
    <path transform="matrix(0.020707,0,0,-0.020707,128.390167,-91.144653)" style="stroke:#000000;stroke-width:2.414639mm;fill:none" d="M854.946167,542.358093C860.343384,540.134216,864.819031,536.257202,867.259216,531.692078C869.15155,528.151855,869.48761,526.022827,869.420471,518C869.320801,506.099762,866.853455,498.211578,856.908997,478C850.987549,465.965088,849.62323,463.840027,848.883911,465.5C846.889282,469.97818,820.799866,533.624634,820.320007,535.182922C819.936157,536.429626,821.188477,537.580933,825.150879,539.624207C835.291565,544.853394,846.413635,545.873962,854.946167,542.358093z"/>
    <path transform="matrix(0.020707,0,0,-0.020707,128.390167,-91.144653)" style="stroke:#000000;stroke-width:2.414639mm;fill:none" d="M663,496.539185C676.842346,478.859039,704.860168,445.279633,716.909546,431.928375C732.953308,414.151215,771.547852,378.835205,785.974426,368.730469L788.387207,367.040466L776.5896,349.443634L764.791992,331.846802L762.645996,333.737457C747.181702,347.361908,741.114563,353.47995,725.619446,371.074768C715.653748,382.390869,701.877808,398.590881,695.006287,407.074768C688.134766,415.558655,677.797119,427.899994,672.033813,434.5C660.545166,447.656525,623.747375,484.952515,612.243774,495.099487L604.987549,501.5L612.243774,509.585144C616.23468,514.031982,622.17865,520.739807,625.452576,524.491333L631.40509,531.312378L642.952576,519.354065C649.30365,512.777039,658.325012,502.510315,663,496.539185z"/>
    <path transform="matrix(0.020707,0,0,-0.020707,128.390167,-91.144653)" style="stroke:#000000;stroke-width:2.414639mm;fill:none" d="M257.914886,518.934631C264.506714,500.057556,270.480957,489.513916,287.099396,467.428253C302.127502,447.456177,319.162872,431.829742,329.179871,428.828125L332.859772,427.725433L321.025269,419.895142C305.991577,409.94809,296.945221,401.056793,283.9953,383.5C272.127808,367.410706,264.495331,359.120392,254.535263,351.500854C242.077026,341.970215,229.469345,337.314209,213.5,336.346558C201.459396,335.616974,192.302353,337.6539,179.490021,343.911835C171.057968,348.030334,168.286789,350.012848,162.733643,355.899475C151.664322,367.633545,143.99321,386.684479,144.005569,402.409973C144.012299,410.95462,145.135742,415.362427,149.570114,424.242279C158.993927,443.113495,192.922165,482.865112,215.008926,500.912842C223.943314,508.213409,229.902542,512.409363,251,526.254456C252.375,527.156799,253.781082,527.918701,254.124634,527.947571C254.468201,527.976379,256.173798,523.920593,257.914886,518.934631z"/>
    <path transform="matrix(0.020707,0,0,-0.020707,128.390167,-91.144653)" style="stroke:#000000;stroke-width:2.414639mm;fill:none" d="M619.83313,481.608856C645.31604,457.966064,671.246338,429.63797,701.399475,392.5C724.143433,364.487488,741.087341,346.574066,758.879761,331.730743C760.848389,330.088409,761.975464,328.378448,761.649414,327.528748C761.347046,326.740753,757.093872,320.111908,752.197998,312.798004C742.192078,297.85022,731.628845,284.178558,729.435242,283.336792C725.435913,281.802094,704.2323,303.553223,682.971802,331C669.127808,348.872284,669.196716,348.795502,639.085205,379.877777C625.563354,393.835541,614.362732,405.609802,614.195007,406.042786C614.027222,406.475769,617.268921,412.83078,621.398743,420.165009C632.686279,440.211029,636.5578,452.213074,633.085938,456.396484C632.213562,457.447601,630.151489,458,627.100037,458C618.635437,458,615,463.087341,615,474.932526C615,485.193542,613.762146,485.189117,603.302856,474.890656C598.615906,470.275787,591.435425,462.337494,587.346191,457.25C583.257019,452.162506,579.75415,448,579.562012,448C579.369934,448,577.087097,451.111023,574.489014,454.913422C570.025635,461.445831,569.850464,461.948425,571.31073,464.033234C572.908264,466.314087,601.241394,497.766327,601.83313,497.915833C602.016357,497.962128,610.116333,490.623993,619.83313,481.608856z"/>
    <path transform="matrix(0.020707,0,0,-0.020707,128.390167,-91.144653)" style="stroke:#000000;stroke-width:2.414639mm;fill:none" d="M613.762085,461.862427C617.06366,456.553223,618.683105,455.555756,624.903564,455L630.5,454.5L630.403748,451C630.297607,447.138763,624.646118,433.567078,619.576904,425C617.786987,421.975006,615.083069,417.323395,613.568176,414.663116L610.813843,409.826233L608.301819,412.163116C606.384155,413.947021,590.630981,433.395172,582.772644,443.680237C581.65094,445.148346,591.01062,457.112762,602.409668,468.782257L610.5,477.064514L611,471.282257C611.306091,467.742615,612.377319,464.089203,613.762085,461.862427z"/>
    <path transform="matrix(0.020707,0,0,-0.020707,128.390167,-91.144653)" style="stroke:#000000;stroke-width:2.414639mm;fill:none" d="M569.428101,455.139099C571.231628,451.651367,589.65033,427.723236,599.69873,415.813751C610.677063,402.802063,618.47345,394.386017,638.433594,374C659.145691,352.845978,668.236572,342.625854,679.443054,327.896393C693.781921,309.049774,710.255188,291.196442,721.5,282.315979L725.5,279.157043L722.5,275.986389C713.458008,266.430023,699.917969,257.95517,690.602295,256.02124C685.186035,254.896835,685.005493,254.935028,679.703613,258.326599C669.910095,264.591431,660.182739,273.881531,647.284119,289.288818C632.192993,307.315002,619.073181,321.643524,594,347.481964C566.404602,375.919586,557.108521,388.594208,552.597534,403.931488C550.513306,411.017761,550.520752,425.022583,552.612427,432.068512C555.340576,441.25824,564.643799,458,567.022339,458C567.531799,458,568.61438,456.712585,569.428101,455.139099z"/>
    <path transform="matrix(0.020707,0,0,-0.020707,128.390167,-91.144653)" style="stroke:#000000;stroke-width:2.414639mm;fill:none" d="M1282.174072,402.657959C1285.415161,395.04483,1291.285522,382.930511,1295.219116,375.737213L1302.371338,362.658478L1299.935669,361.087982C1290.251099,354.843445,1280.851563,342.474457,1269.450562,320.97229C1261.850586,306.638916,1261.310669,304.245941,1265.328979,302.70401C1268.561523,301.463562,1271.497314,304.791138,1277.94165,317C1290.544434,340.876129,1297.971313,349.624146,1312.186646,357.336548C1332.865356,368.555542,1346.993408,369.127441,1363.126221,359.398468C1382.110474,347.949982,1400,315.177856,1400,291.848907C1400,283.921021,1398.921143,281.410217,1397.031738,284.940613C1396.444092,286.038757,1393.833984,288.188873,1391.231567,289.718628C1386.82251,292.310425,1385.750244,292.498444,1375.5,292.477234C1366.627319,292.458893,1363.24292,292.010925,1358,290.16095C1347.591553,286.488281,1326.29541,275.743744,1316.042236,268.992004C1305.764526,262.224091,1290.485962,247.634003,1285.179077,239.519623C1281.438721,233.800385,1278.565796,224.943497,1279.498169,222.005875C1281.147583,216.809052,1270.033813,221.994232,1262.979614,229.712723C1256.661377,236.625824,1250.437744,249.206711,1237.113525,282C1225.984863,309.389618,1208.541504,350.743317,1203.515625,361.652283L1200.220459,368.804565L1206.860229,370.991089C1216.05249,374.018188,1239.961426,385.77829,1249,391.718353C1258.492432,397.956696,1270.047974,409.15506,1273.024292,415C1274.50708,417.911865,1275.486084,418.970612,1275.798462,418C1276.063965,417.174988,1278.932983,410.271088,1282.174072,402.657959z"/>
    <path transform="matrix(0.020707,0,0,-0.020707,128.390167,-91.144653)" style="stroke:#000000;stroke-width:2.414639mm;fill:none" d="M834.473328,399.661041L846.038757,393.322083L834.428955,375.411041C828.043579,365.559967,822.450439,357.113098,821.999817,356.640198C821.547485,356.165558,819.907959,356.483856,818.34021,357.350647C816.778076,358.214294,812.013306,360.330353,807.751831,362.05304C803.490295,363.775696,799.786255,365.536804,799.52063,365.966614C799.137024,366.587311,821.942993,405.960785,822.703979,405.991699C822.816162,405.996277,828.112366,403.147461,834.473328,399.661041z"/>
    <path transform="matrix(0.020707,0,0,-0.020707,128.390167,-91.144653)" style="stroke:#000000;stroke-width:2.414639mm;fill:none" d="M801.8349,360.604218C803.922241,359.28656,808.638245,357.176056,812.315002,355.914246C815.99176,354.652405,819,353.314819,819,352.941772C819,352.568756,815.803101,348.041748,811.895752,342.881775C807.988403,337.721802,802.475891,330.433685,799.645752,326.685974C793.697266,318.80896,794.152954,318.868927,781.165039,324.25473L773.070435,327.611389L784.785217,345.247406C791.228333,354.947235,796.846436,362.909668,797.269897,362.941711C797.693298,362.973785,799.747559,361.921906,801.8349,360.604218z"/>
    <path transform="matrix(0.020707,0,0,-0.020707,128.390167,-91.144653)" style="stroke:#000000;stroke-width:2.414639mm;fill:none" d="M780.14032,320.5C784.157104,318.575012,787.992188,317,788.662781,317C789.333313,317,790.129211,316.599945,790.431396,316.110992C790.733582,315.62204,784.648804,305.722015,776.909668,294.110992C765.658447,277.230835,762.395081,273,760.626038,273C758.580811,273,741.389404,277.643433,739.797424,278.625854C739.411011,278.864319,742.335999,283.209503,746.297424,288.28183C750.25885,293.354156,757.325012,303.447662,762,310.711823C766.674988,317.975983,771.025818,323.937531,771.668518,323.959686C772.311218,323.981873,776.123474,322.424988,780.14032,320.5z"/>
    <path transform="matrix(0.020707,0,0,-0.020707,128.390167,-91.144653)" style="stroke:#000000;stroke-width:2.414639mm;fill:none" d="M784.848145,282.543396C786.954102,276.719482,794.668884,267.239899,801.248779,262.39093C807.946655,257.455078,818.007324,252,820.412476,252C823.920959,252,822.443848,249.762833,814.378296,242.861115C794.031128,225.449905,785.476318,209.674561,779.998413,179.463837C778.805298,172.883728,776.904846,165.345551,775.775208,162.712326C768.739258,146.311371,737.186829,137.640625,717.708923,146.755447C701.517883,154.332153,691.974976,169.289505,687.566589,194C684.498474,211.197601,681.994873,242.661575,683.569336,244.235977C683.882446,244.549103,687.862671,243.060165,692.414246,240.927216C711.311401,232.071716,725.724304,231.832581,742.256897,240.10025C751.071594,244.508316,764.329407,258.364166,774.5,273.79776C778.900024,280.47464,782.74707,285.951599,783.049133,285.968781C783.351135,285.985962,784.160706,284.444519,784.848145,282.543396z"/>
    <path transform="matrix(0.020707,0,0,-0.020707,128.390167,-91.144653)" style="stroke:#000000;stroke-width:2.414639mm;fill:none" d="M1386.5,283.426392C1390.391968,281.713776,1392.387817,280.035889,1393.89209,277.212219C1395.453125,274.281769,1394.712646,272.056946,1390.988525,268.488983L1388,265.625824L1388,270.165039C1388,275.784973,1385.00354,280.564301,1379.470459,283.769592L1375.5,286.069641L1379.5,285.408081C1381.699951,285.04422,1384.849976,284.152466,1386.5,283.426392z"/>
    <path transform="matrix(0.020707,0,0,-0.020707,128.390167,-91.144653)" style="stroke:#000000;stroke-width:2.414639mm;fill:none" d="M1375.253784,281.255341C1382.902588,278.24881,1385.807617,271.587982,1382.495483,264.651123C1380.822754,261.14801,1377.623901,258.759918,1368,253.829803C1350.851318,245.044891,1334.585327,254.465942,1341.956177,268.914032C1345.053345,274.984985,1351.900269,279.805695,1362,283.026215C1364.970093,283.973297,1370.073975,283.291351,1375.253784,281.255341z"/>
    <path transform="matrix(0.020707,0,0,-0.020707,128.390167,-91.144653)" style="stroke:#000000;stroke-width:2.414639mm;fill:none" d="M759,267.867035C759,267.442444,755.498657,263.498322,751.219238,259.102356C745.037781,252.752502,741.816528,250.339401,735.547607,247.362289C728.473877,244.002991,726.820068,243.612854,719.578369,243.595108C714.33136,243.582245,709.572327,244.222122,706,245.420792C698.350342,247.987595,698.32843,248.019836,702.854736,250.046326C709.088989,252.837479,717.689087,259.010925,726.699707,267.163055L734.899414,274.581543L746.949707,271.610291C753.577393,269.976074,759,268.291626,759,267.867035z"/>
    <path transform="matrix(0.020707,0,0,-0.020707,128.390167,-91.144653)" style="stroke:#000000;stroke-width:2.414639mm;fill:none" d="M1336.830811,267.796722C1335.529297,264.371582,1335.065063,261.466888,1335.472168,259.296722L1336.090576,256L1329.795288,255.986618C1325.436035,255.977356,1321.039673,255.095886,1315.5,253.120468C1311.099976,251.551437,1306.599976,249.947876,1305.5,249.556992C1303.100952,248.704483,1308.121216,253.406036,1315.600952,259.016632C1319.587402,262.006836,1337.677612,273,1338.611938,273C1338.719727,273,1337.918213,270.658539,1336.830811,267.796722z"/>
    <path transform="matrix(0.020707,0,0,-0.020707,128.390167,-91.144653)" style="stroke:#000000;stroke-width:2.414639mm;fill:none" d="M1337.856445,249.333221C1339.760864,248.105728,1340.098145,247.240631,1339.614624,244.823044C1338.445435,238.977386,1335.604492,236.633606,1321.306152,229.718689C1307.935303,223.25235,1292.450439,218.229416,1289.443726,219.383209C1287.312134,220.201172,1287.644409,226.634064,1290.077881,231.660934C1292.639648,236.952881,1296.362793,240.158203,1304.903931,244.425034C1319.503174,251.718353,1331.405396,253.49115,1337.856445,249.333221z"/>
    <path transform="matrix(0.020707,0,0,-0.020707,128.390167,-91.144653)" style="stroke:#000000;stroke-width:2.414639mm;fill:none" d="M1349.493408,246.081253C1351.312012,245.371323,1351.202393,245.156006,1348.243408,243.625854L1345,241.948639L1345,244.474319C1345,247.071243,1346.021606,247.436569,1349.493408,246.081253z"/>
    <path transform="matrix(0.020707,0,0,-0.020707,128.390167,-91.144653)" style="stroke:#000000;stroke-width:2.414639mm;fill:none" d="M540.519165,1871.401978C531.912231,1868.251587,526.350586,1859.605591,523.529053,1844.98938C521.463013,1834.286743,519.622986,1794.572754,520.412292,1777.720215C520.741516,1770.691284,521.891541,1755.616333,522.967896,1744.220215C524.916626,1723.587158,525.486816,1715.391724,528.479614,1665C531.719604,1610.445801,532.259888,1606.797363,538.28302,1598.794189C542.772827,1592.828247,549.560364,1589.606079,557.413696,1589.712402C563.857117,1589.799561,569.061035,1591.489258,586,1598.994263C591.224976,1601.309204,599.775024,1604.795044,605,1606.740479C610.224976,1608.685913,619,1612.294434,624.5,1614.759521C630,1617.224487,646.200012,1624.182251,660.5,1630.221191C691.710144,1643.401245,702.452454,1648.803101,708.797974,1654.508301C714.631653,1659.753174,718.648254,1666.867554,719.530457,1673.517944C720.750061,1682.712036,713.962708,1704.957886,704.514893,1722.732056C699.646912,1731.890259,684.619507,1754.142212,674.858826,1766.64563C665.381592,1778.786011,630.458618,1817.508545,614.5,1833.571533C595.525085,1852.67041,576.721375,1866.289795,562.575195,1871.180176C556.429993,1873.304565,546.003601,1873.409424,540.519165,1871.401978z"/>
    <path transform="matrix(0.020707,0,0,-0.020707,128.390167,-91.144653)" style="stroke:#000000;stroke-width:2.414639mm;fill:none" d="M564.475647,1860.158203C584.088379,1850.980347,607.029175,1830.535278,638.647705,1794.05542C640.766479,1791.610962,647.384338,1784.185913,653.354004,1777.55542C666.810547,1762.609375,670.034851,1758.441162,683.280823,1738.867188C695.816467,1720.343018,700.779846,1710.811646,706.057251,1695.129028C714.345825,1670.498047,710.037842,1661.913574,683.5,1650.179321C664.315735,1641.696655,604.546997,1616.415894,597.745178,1613.907104C593.480042,1612.333862,584.279724,1608.519653,577.299988,1605.43103C555.216553,1595.658569,547.484314,1596.934082,542.42572,1611.18396C540.922974,1615.417114,540.626892,1619.250244,536.492493,1688C535.616028,1702.574951,533.796631,1726.828003,532.449463,1741.895508C529.84021,1771.078369,529.029541,1819.264526,531.009277,1827.5C531.538147,1829.699951,532.424438,1835.372559,532.978821,1840.105591C534.089355,1849.58667,536.133789,1856.36853,538.776306,1859.337036C543.70575,1864.87439,553.713928,1865.194214,564.475647,1860.158203z"/>
    <path transform="matrix(0.020707,0,0,-0.020707,128.390167,-91.144653)" style="stroke:#000000;stroke-width:2.414639mm;fill:none" d="M1223.075195,1404.973633C1215.421021,1403.366577,1208.779175,1400.892822,1200,1396.378906C1161.197021,1376.428589,1133.866089,1330.070435,1124.312866,1268C1122.0802,1253.49353,1121.806519,1212.424927,1123.846313,1198C1132.416992,1137.390137,1156.476196,1090.564819,1192.979736,1063.447998C1208.273926,1052.08667,1224.595947,1046.162231,1243,1045.291992C1262.057617,1044.390747,1277.938232,1048.92041,1294.901978,1060.095947C1329.378784,1082.80896,1353.343994,1127.849365,1361.627319,1185.5C1363.734497,1200.165161,1364.002075,1235.715698,1362.116577,1250.5C1354.324951,1311.5979,1328.408325,1362.432129,1291.851563,1388.322144C1284.011475,1393.874512,1268.956177,1401.166138,1260.5,1403.506348C1253.469116,1405.452148,1229.778198,1406.380981,1223.075195,1404.973633z"/>
    <path transform="matrix(0.020707,0,0,-0.020707,128.390167,-91.144653)" style="stroke:#000000;stroke-width:2.414639mm;fill:none" d="M1252.265015,1395.576294C1290.933472,1388.177856,1324.939331,1351.016724,1342.471436,1297C1350.410767,1272.539185,1354.001465,1248.403931,1353.997192,1219.529907C1353.99292,1190.954956,1350.555054,1167.829224,1342.843262,1144.5C1320.675537,1077.439697,1272.459961,1042.367554,1223.845093,1057.940186C1209.481445,1062.54126,1198.526611,1069.543579,1185.421631,1082.5C1171.933228,1095.835449,1163.225464,1108.152466,1154.558716,1126.155029C1138.561279,1159.384644,1131.751343,1190.388062,1131.639282,1230.5C1131.555176,1260.569336,1134.823364,1282.48291,1143.082764,1307.229248C1163.709106,1369.028442,1207.178711,1404.202759,1252.265015,1395.576294z"/>
    <path transform="matrix(0.020707,0,0,-0.020707,128.390167,-91.144653)" style="stroke:#000000;stroke-width:2.414639mm;fill:none" d="M674.599487,1343.422485C661.291992,1341.353516,651.633484,1338.430664,640.369812,1333.063965C597.436279,1312.607544,568.274048,1270.039063,558.803101,1214C555.983459,1197.316284,555.770264,1167.760986,558.348572,1151C567.52063,1091.375488,598.450867,1041.01355,642.5,1013.980957C666.32605,999.359131,694.433899,992.464783,719.759888,995.03064C733.706238,996.443542,746.658325,999.890442,758.083984,1005.229736C800.709595,1025.148804,830.293396,1067.226074,840.534546,1122.5C842.723389,1134.313843,843.648682,1169.427734,842.090576,1181.552002C834.271851,1242.393188,805.568115,1292.633545,762,1321.735352C745.447449,1332.791748,728.268372,1339.620483,708.506348,1342.998901C695.118652,1345.287598,687.230042,1345.38623,674.599487,1343.422485z"/>
    <path transform="matrix(0.020707,0,0,-0.020707,128.390167,-91.144653)" style="stroke:#000000;stroke-width:2.414639mm;fill:none" d="M716.5,1332.041748C759.881592,1320.727173,796.682739,1286.755737,817.291931,1239C834.025635,1200.224487,838.368286,1155.568237,829.348938,1115.016113C816.883118,1058.968506,780.346313,1017.826599,732.772644,1006.26709C727.20282,1004.913757,721.519653,1004.515259,708.5,1004.565186C693.412537,1004.623047,690.403137,1004.925903,681.750549,1007.257446C618.64447,1024.261963,570.5849,1091.166016,566.154053,1168.180176C564.144592,1203.107422,569.456665,1232.228271,583.045105,1260.7771C601.69696,1299.964111,632.497375,1325.545532,670.625488,1333.517578C680.68811,1335.62146,705.882446,1334.811035,716.5,1332.041748z"/>
    <path transform="matrix(0.020707,0,0,-0.020707,128.390167,-91.144653)" style="stroke:#000000;stroke-width:2.414639mm;fill:none" d="M1019.99353,1121.065674C1016.133301,1119.891479,1011.053162,1117.091553,1004.814941,1112.699951L999.129822,1108.697876L993.867493,1110.96167C977.298523,1118.089478,957.614624,1111.01355,949.507751,1095.015259C942.430359,1081.048706,946.905518,1067.611694,963.156128,1054.035034C971.974792,1046.667358,987.11908,1037.379883,993.69342,1035.307495C996.612061,1034.387451,999,1033.249023,999,1032.777588C999,1030.536987,994.742432,1024,991.197021,1020.796936C977.445435,1008.37323,958.669983,1005.582581,942.352966,1013.53717C938.509766,1015.410706,936.77179,1016.990479,935.492432,1019.773193C933.380737,1024.366089,931.502075,1025.944092,928.942566,1025.27478C926.626831,1024.669189,925.509888,1021.088989,926.458069,1017.310974C928.113159,1010.716736,934.987122,1005.282959,945.69574,1002.104004L951.339172,1000.428711L952.575806,994.36615C954.309875,985.865051,958.002808,979.139221,965.10498,971.546936C994.375732,940.256409,1044.446777,950.7677,1058.017456,991.051819C1059.10791,994.288635,1060,998.724731,1060,1000.90979C1060,1004.742065,1060.21167,1004.995544,1065.979248,1008.069641C1081.243164,1016.2052,1094.716553,1035.840698,1088.548096,1040.960083C1085.835327,1043.211426,1083.565674,1041.538574,1079.768921,1034.489502C1075.144165,1025.903076,1068.134399,1019.175598,1059.264648,1014.810974C1053.329346,1011.89032,1051.59082,1011.501892,1044.518066,1011.516052C1037.326294,1011.530396,1035.727173,1011.910767,1029,1015.207092C1018.38385,1020.408997,1013.815796,1025.07666,1012.532288,1032.033813C1011.915527,1035.376831,1012.164551,1035.730591,1019.543091,1041.991699C1032.882813,1053.311157,1049.196411,1070.897827,1052.484497,1077.503906C1055.04187,1082.641968,1055.471191,1084.644775,1055.484497,1091.5C1055.497681,1098.278931,1055.067505,1100.380615,1052.666748,1105.269775C1049.502197,1111.714233,1043.324463,1117.491455,1036.735962,1120.167725C1032.334839,1121.955322,1024.329834,1122.384644,1019.99353,1121.065674z"/>
    <path transform="matrix(0.020707,0,0,-0.020707,128.390167,-91.144653)" style="stroke:#000000;stroke-width:2.414639mm;fill:none" d="M1032.10083,1111.827637C1040.777832,1108.835083,1046.417236,1101.068115,1046.468506,1092.039307C1046.520996,1082.799805,1043.660645,1078.376099,1027.125977,1062.124634C1008.997925,1044.307129,1006.544373,1042.565796,1000.523376,1043.244507C991.642395,1044.245483,966.689331,1061.029053,959.765198,1070.658691C953.967346,1078.721802,954.706238,1088.633423,961.659241,1096.066772C969.537354,1104.489136,980.364746,1106.588867,992.34259,1102.01709C999.617065,1099.240479,1002.381042,1099.719238,1010.305481,1105.128418C1017.320251,1109.916626,1023.610596,1112.946777,1026.60083,1112.978027C1027.756226,1112.990112,1030.231201,1112.472412,1032.10083,1111.827637z"/>
    <path transform="matrix(0.020707,0,0,-0.020707,128.390167,-91.144653)" style="stroke:#000000;stroke-width:2.414639mm;fill:none" d="M1012.820496,1014.334106C1020.347412,1007.297974,1034.032837,1002,1044.681519,1002C1049.453979,1002,1051,1001.654785,1051,1000.589111C1051,997.666382,1047.181152,987.063232,1045.05127,984.07196L1042.835693,980.96051L1039.717773,983.583984C1036.934204,985.92627,1035.937012,986.165283,1030.416504,985.813782C1025.731201,985.515442,1023.192566,984.731445,1019.93811,982.577698C1016.551086,980.336304,1015.310791,979.972595,1014.071533,980.857239C1008.401123,984.905029,1004.201111,986.352356,998,986.395569C990.247742,986.449463,983.34729,983.700928,977.891785,978.386108L974.283569,974.870972L970.152283,979.564331C966.021973,984.256653,961.638489,992.200195,960.475464,997.100281C959.862,999.685181,959.901733,999.703918,967.179138,1000.259888C979.774719,1001.222168,991.835083,1007.397888,1000.581421,1017.364075L1005.5,1022.968628L1007.466858,1020.234314C1008.548645,1018.730469,1010.957764,1016.075378,1012.820496,1014.334106z"/>
    <path transform="matrix(0.020707,0,0,-0.020707,128.390167,-91.144653)" style="stroke:#000000;stroke-width:2.414639mm;fill:none" d="M1005.970825,979.515076C1007.550171,978.698364,1009.808472,976.673401,1010.989258,975.015076C1013.622498,971.317078,1015.90271,971.198608,1019.075684,974.595032C1024.053589,979.923401,1031.2854,981.589722,1035.777466,978.443298C1039.186768,976.055359,1038.482178,974.28363,1032.636597,970.544189C1017.843384,961.081116,997.61853,960.32019,983.156067,968.682678L978.812073,971.194458L981.656067,974.187012C983.220215,975.832886,986.075012,978.019287,988,979.045593C992.331848,981.355103,1001.927856,981.605774,1005.970825,979.515076z"/>
    <path transform="matrix(0.020707,0,0,-0.020707,128.390167,-91.144653)" style="stroke:#000000;stroke-width:2.414639mm;fill:none" d="M1462.655151,979.541321C1454.972412,976.802063,1451,971.061279,1451,962.697571C1451,956.736572,1453.293701,952.318665,1458.323364,948.591919C1460.533325,946.954468,1462.614136,946.5,1467.901123,946.5C1473.803955,946.5,1475.13208,946.863403,1478.43396,949.381836C1482.929199,952.810486,1485,957.268738,1485,963.517517C1485,971.296021,1479.932373,977.813721,1472.218994,979.955994C1467.613159,981.235168,1467.377075,981.224915,1462.655151,979.541321z"/>
    <path transform="matrix(0.020707,0,0,-0.020707,128.390167,-91.144653)" style="stroke:#000000;stroke-width:2.414639mm;fill:none" d="M1472.364258,974.621155C1477.444092,972.498657,1480,968.574829,1480,962.898499C1480,958.70105,1479.536133,957.602783,1476.466675,954.533325C1473.38562,951.452332,1472.307373,951,1468.043335,951C1454.25354,951,1450.790283,968.987305,1463.5,974.597473C1467.34314,976.293884,1468.35437,976.296631,1472.364258,974.621155z"/>
    <path transform="matrix(0.020707,0,0,-0.020707,128.390167,-91.144653)" style="stroke:#000000;stroke-width:2.414639mm;fill:none" d="M1493.637207,950.535217C1486.11438,947.853333,1481,941.069275,1481,933.772156C1481,926.426208,1485.994873,921.980042,1494.200317,922.021973C1507.990723,922.092407,1519.002197,937.370972,1511.832153,946.486328C1507.769287,951.651428,1500.996216,953.158569,1493.637207,950.535217z"/>
    <path transform="matrix(0.020707,0,0,-0.020707,128.390167,-91.144653)" style="stroke:#000000;stroke-width:2.414639mm;fill:none" d="M1507.200195,944.953613C1509.813477,942.340393,1510.16333,941.393921,1509.660889,938.297485C1508.146851,928.967468,1494.532104,922.647217,1487.634888,928.072571C1481.92395,932.564758,1485.512817,942.056824,1494.458618,946.120361C1500.385864,948.812683,1503.639038,948.514771,1507.200195,944.953613z"/>
    <path transform="matrix(0.020707,0,0,-0.020707,128.390167,-91.144653)" style="stroke:#000000;stroke-width:2.414639mm;fill:none" d="M1431.227539,921.883545C1422.631348,917.628601,1419.328491,911.220215,1416.904541,894.093323C1415.363892,883.20813,1416.183716,880.650757,1422.153198,877.720642C1426.537598,875.568481,1446.026245,873.626953,1454.122559,874.535706C1463.450806,875.582703,1468.655762,880.014526,1469.699829,887.799133C1470.693115,895.203979,1465.234497,901.242432,1456.342041,902.575928L1452.119019,903.209229L1452.671021,907.869873C1454.169678,920.524048,1443.098145,927.75946,1431.227539,921.883545z"/>
    <path transform="matrix(0.020707,0,0,-0.020707,128.390167,-91.144653)" style="stroke:#000000;stroke-width:2.414639mm;fill:none" d="M1444.031738,916.982971C1445.076904,916.423645,1446.427002,914.128052,1447.03186,911.881653C1447.932007,908.538574,1447.836792,907.17572,1446.506714,904.372803C1445.012939,901.224976,1445.184448,897.11084,1446.817383,896.920349C1447.192871,896.876587,1450.265625,896.764099,1453.645752,896.670349C1460.673584,896.475525,1464,894.354309,1464,890.067505C1464,886.1828,1461.557617,883.378357,1456.488281,881.442383C1447.824463,878.133606,1424.158203,880.818176,1422.436523,885.304993C1421.632324,887.400452,1425.870483,907.060486,1427.866943,910.496582C1431.371948,916.528748,1439.092163,919.626587,1444.031738,916.982971z"/>
    <path transform="matrix(0.020707,0,0,-0.020707,128.390167,-91.144653)" style="stroke:#000000;stroke-width:2.414639mm;fill:none" d="M1037.160889,537.441772L1032.871338,532.883484L1028.932861,536.441772C1025.010498,539.985352,1019.883667,541.238831,1018.495972,538.99353C1018.15387,538.439941,1020.18457,535.330383,1023.008728,532.083435L1028.143433,526.179871L1022.893677,518.628418C1018.144043,511.796448,1017.754089,510.835144,1018.800537,508.538483C1020.797546,504.155396,1024.304565,505.164703,1029.086914,511.498871L1033.238525,516.997742L1036.654053,513.99884C1040.504761,510.617859,1042.54541,510.278595,1045.10376,512.593933C1047.26355,514.548523,1046.686768,516.351257,1042.333252,521.252869C1040.5,523.316956,1039,525.737183,1039,526.631165C1039,527.525146,1040.39209,530.689636,1042.093506,533.663452C1047.229004,542.639282,1044.220459,544.943726,1037.160889,537.441772z"/>
    <path transform="matrix(0.020707,0,0,-0.020707,128.390167,-91.144653)" style="stroke:#000000;stroke-width:2.414639mm;fill:none" d="M476.467407,791.066467C471.019287,788.282898,469,784.568604,469,777.330872C469,758.378784,492.631012,744.835022,505.691162,756.302002C511.738892,761.612,513.709412,769.973022,510.642853,777.312317C505.931854,788.587341,486.73587,796.312927,476.467407,791.066467z"/>
    <path transform="matrix(0.020707,0,0,-0.020707,128.390167,-91.144653)" style="stroke:#000000;stroke-width:2.414639mm;fill:none" d="M494.826355,783.589783C506.653748,777.473633,509.043304,766.654907,499.810181,761.025635C494.292511,757.661621,489.298889,758.643616,481.238495,764.677734C476.293182,768.379883,473.655579,776.332886,475.649658,781.529419C477.310303,785.856934,488.183105,787.025146,494.826355,783.589783z"/>
    <path transform="matrix(0.020707,0,0,-0.020707,128.390167,-91.144653)" style="stroke:#000000;stroke-width:2.414639mm;fill:none" d="M529.5,774.064941C521.726685,772.172546,515.051575,766.45343,511.357635,758.520935C508.359253,752.082031,508.211151,741.928162,511,734C513.955322,725.598633,513.653931,724.237854,506.452545,713.466858C502.851471,708.08075,499.391541,701.753784,498.763855,699.40686L497.622589,695.139771L494.765808,697.543579C488.714844,702.635132,478.062317,703.169128,469.349335,698.817627C463.183533,695.738281,460.5,691.752258,460.5,685.673157C460.5,681.391907,460.914764,680.466187,464.169647,677.483337C470.966797,671.254211,481.585266,670.472412,490.856506,675.518433C493.488098,676.950684,496.425385,679.450134,497.38385,681.072632L499.126526,684.022766L504.123169,678.555603C511.28952,670.714478,517.598755,667.872009,527.786987,667.894409C536.990601,667.914612,545.010315,670.21283,554.736755,675.617493C567.713928,682.828491,584.336731,698.119629,588.019958,706.234497C592.23584,715.522644,589.788757,722.765076,575.551636,743.135986C561.855896,762.732361,553.958435,769.868408,542.068481,773.390869C536.267151,775.109558,534.238037,775.218384,529.5,774.064941z"/>
    <path transform="matrix(0.020707,0,0,-0.020707,128.390167,-91.144653)" style="stroke:#000000;stroke-width:2.414639mm;fill:none" d="M544.938599,764.343323C552.239746,760.705017,559.016418,753.583069,568.673035,739.399658C585.927979,714.05603,586.04718,711.43811,570.61676,696.704651C552.279053,679.19519,534.313538,671.421509,520.31665,674.939697C511.324402,677.199951,505.073669,684.58136,505.022766,693C504.997528,697.168213,509.290253,706.122925,515.447876,714.747131C521.445801,723.147583,521.96875,726.44989,518.518738,734.137573C509.023102,755.296692,525.436218,774.061768,544.938599,764.343323z"/>
    <path transform="matrix(0.020707,0,0,-0.020707,128.390167,-91.144653)" style="stroke:#000000;stroke-width:2.414639mm;fill:none" d="M488.989288,694.248474C496.28183,690.594238,494.972717,683.644836,486.266266,679.793579C477.812195,676.053955,466.925323,679.112122,466.175049,685.437317C465.277008,693.008301,480.065796,698.71991,488.989288,694.248474z"/>
    <path transform="matrix(0.020707,0,0,-0.020707,128.390167,-91.144653)" style="stroke:#000000;stroke-width:2.414639mm;fill:none" d="M465.421387,747.103699C450.878723,740.498718,454.623657,723.41748,472.373871,715.392151C487.46402,708.56958,503.061951,714.144287,503.24762,726.426514C503.471313,741.223633,480.328674,753.874207,465.421387,747.103699z"/>
    <path transform="matrix(0.020707,0,0,-0.020707,128.390167,-91.144653)" style="stroke:#000000;stroke-width:2.414639mm;fill:none" d="M486.324005,740.86969C493.86496,737.085815,498,731.899048,498,726.223999C498,716.679016,479.670654,715.047546,468.464294,723.595032C459.923187,730.10968,459.833435,740.35614,468.2948,742.947754C472.81012,744.330688,481.399597,743.340698,486.324005,740.86969z"/>
    <path transform="matrix(0.020707,0,0,-0.020707,128.390167,-91.144653)" style="stroke:#000000;stroke-width:2.414639mm;fill:none" d="M1214.5,1356.520142C1200.040649,1353.337036,1187.754883,1346.067139,1174.972656,1333.130371C1170.282593,1328.383667,1164.360718,1321.349976,1161.812744,1317.5C1132.205811,1272.762451,1129.117432,1206.744507,1154.119873,1153.055908C1162.973022,1134.045166,1180.206787,1112.881104,1194.822388,1103.070923C1238.686646,1073.628418,1289.281006,1091.523071,1314.541016,1145.413818C1342.497803,1205.058228,1330.324463,1287.147827,1287.000488,1331.129639C1265.723877,1352.72937,1239.306396,1361.981079,1214.5,1356.520142z"/>
    <path transform="matrix(0.020707,0,0,-0.020707,128.390167,-91.144653)" style="stroke:#000000;stroke-width:2.414639mm;fill:none" d="M1238,1348.569458C1248.289795,1346.702515,1255.529785,1343.788696,1264.707275,1337.820923C1292.276855,1319.893555,1312.541016,1283.713623,1318.50293,1241.773682C1319.967773,1231.469238,1320.53064,1203.90332,1319.392578,1198.212646L1318.785034,1195.175171L1315.810303,1198.563354C1310.102173,1205.064453,1300.848755,1204.986206,1293.120972,1198.37146C1290.923096,1196.490234,1284.99939,1188.845215,1279.957153,1181.38269C1263.65979,1157.262085,1251.728394,1146.967285,1233.416992,1141.226074C1227.962646,1139.515991,1219.663208,1136.9823,1214.973755,1135.595825C1201.604614,1131.643066,1194.691528,1124.234009,1196.536133,1115.835449L1197.229614,1112.677979L1192.44165,1116.588989C1185.631592,1122.151611,1175.658813,1134.132813,1169.890991,1143.68103C1143.215576,1187.840576,1138.728027,1248.052368,1158.603027,1295.138672C1163.026733,1305.619263,1172.074097,1320.415649,1177.880127,1326.665527C1188.696045,1338.308228,1204.333252,1346.785156,1218.9729,1348.941895C1227.046753,1350.131348,1229.675293,1350.079834,1238,1348.569458z"/>
    <path transform="matrix(0.020707,0,0,-0.020707,128.390167,-91.144653)" style="stroke:#000000;stroke-width:2.414639mm;fill:none" d="M1311.955444,1195.047607C1313.47229,1193.423828,1315.293823,1190.022095,1316.003296,1187.488281C1317.150635,1183.390381,1317.050171,1181.920898,1315.094727,1174.190674C1306.255493,1139.249268,1286.35144,1112.825806,1261,1102.37793C1255.802734,1100.235962,1252.381958,1099.604736,1243.931519,1099.228516C1220.643677,1098.191772,1203.557617,1105.180054,1201.411621,1116.619263C1200.068237,1123.780273,1206.219604,1128.109131,1224.62561,1132.955688C1230.606567,1134.530518,1238.080933,1136.789551,1241.235596,1137.975952C1255.384888,1143.297119,1268.758911,1155.621704,1282.933228,1176.4021C1294.368286,1193.166626,1299.32373,1198,1305.076416,1198C1308.351318,1198,1309.763916,1197.393677,1311.955444,1195.047607z"/>
    <path transform="matrix(0.020707,0,0,-0.020707,128.390167,-91.144653)" style="stroke:#000000;stroke-width:2.414639mm;fill:none" d="M672.659729,1301.012939C647.141968,1296.4104,621.982178,1279.879883,604.910217,1256.5C598.19989,1247.310181,588.718628,1227.781006,585.49707,1216.513428C573.818909,1175.667969,578.608826,1130.455444,598.531189,1093.482422C608.723022,1074.567993,626.188599,1054.89978,641.979309,1044.555176C685.640015,1015.952515,736.674866,1021.787415,771.717224,1059.388306C822.73407,1114.129883,818.852173,1213.417725,763.541443,1268.5C752.238281,1279.75647,743.33429,1286.07373,729.604248,1292.577637C715.772095,1299.130005,707.065125,1301.154053,691,1301.551758C683.575012,1301.735596,675.321899,1301.493164,672.659729,1301.012939z"/>
    <path transform="matrix(0.020707,0,0,-0.020707,128.390167,-91.144653)" style="stroke:#000000;stroke-width:2.414639mm;fill:none" d="M703.162048,1291.584961C722.766113,1287.804443,740.532288,1278.224487,755.949707,1263.120361C777.36969,1242.135864,791.95813,1212.291504,796.918457,1179.308472C798.462646,1169.040771,798.249756,1144.089355,796.527344,1133.470215C787.196106,1075.939209,747.332458,1035.883423,699.559631,1036.035156C689.969421,1036.065552,676.858765,1037.807861,675.424133,1039.242554C675.166748,1039.499878,677.553528,1039.983032,680.728088,1040.316162C689.117737,1041.196533,704.856384,1045.493896,716.815002,1050.169556C739.928345,1059.206421,762.596985,1079.431763,773.273376,1100.542725C777.550598,1109.000244,779.239685,1116.385864,778.851196,1124.931763C778.552429,1131.501953,778.090881,1133.192139,775.761047,1136.246704C770.577515,1143.042603,763.269104,1143.262939,753.681824,1136.912598C751.096924,1135.200439,743.823914,1127.81543,737.519592,1120.501587C712.390503,1091.348145,697.303528,1083.575684,661,1081.080322C642.146301,1079.784424,637.117432,1077.192627,634.644104,1067.49707L633.442688,1062.787598L626.606995,1070.033691C595.859009,1102.628174,581.836548,1155.562622,591.525024,1202.467407C600.155029,1244.248047,626.379639,1277.837036,658.612976,1288.39502C672.778503,1293.03479,689.452209,1294.22876,703.162048,1291.584961z"/>
    <path transform="matrix(0.020707,0,0,-0.020707,128.390167,-91.144653)" style="stroke:#000000;stroke-width:2.414639mm;fill:none" d="M772.311523,1131.949219C774.825012,1127.16333,774.179016,1115.524536,770.982178,1108C763.230469,1089.754395,744.209045,1069.967651,724,1059.127441C715.586487,1054.614502,699.232178,1048.871704,687.971497,1046.476318C683.862183,1045.602051,676,1044.809326,670.5,1044.7146C659.15387,1044.519043,656.139954,1045.631226,644.224182,1054.410156L637.948425,1059.033813L638.562317,1063.766968C639.260986,1069.153931,641.02832,1072.409546,644.165222,1074.088379C645.356079,1074.725708,652.893616,1075.62207,660.915222,1076.080322C682.406067,1077.307983,692.013489,1079.466919,704.934326,1085.972168C718.73053,1092.918091,726.292297,1099.336426,741.526855,1117.031128C746.103638,1122.347168,751.976563,1128.569824,754.577698,1130.859497C762.429504,1137.770874,769.040588,1138.177124,772.311523,1131.949219z"/>
    <path transform="matrix(0.020707,0,0,-0.020707,128.390167,-91.144653)" style="stroke:#000000;stroke-width:2.414639mm;fill:none" d="M531.380615,748.090393C528.303162,746.213806,525.990723,741.69751,526.009766,737.600769C526.015137,736.445374,527.140137,733.092834,528.509766,730.150696C531.737976,723.216125,531.652466,721.2146,527.8078,713.721497C522.210449,702.812439,523.823914,692.642822,531.672302,689.363586C536.144104,687.495117,538.638611,687.646667,543.693604,690.09375C548.387024,692.365784,561.91803,705.177612,565.05127,710.316345C567.742676,714.730286,567.540466,721.297119,564.512817,727.800598C559.582642,738.390625,545.474487,750.005981,537.55365,749.996277C535.874146,749.994202,533.096313,749.136597,531.380615,748.090393z"/>
    <path transform="matrix(0.020707,0,0,-0.020707,128.390167,-91.144653)" style="stroke:#000000;stroke-width:2.414639mm;fill:none" d="M545.447754,740.826843C552.790344,735.963318,560.966553,723.327454,560.990234,716.806885C561.001892,713.589539,552.217346,702.784668,545.288757,697.494324C537.154785,691.283569,530,693.351074,530,701.912415C530,704.205505,531.397888,707.693359,534.127625,712.211243C537.709106,718.138794,538.190796,719.615051,537.767761,723.368225C537.499573,725.747314,536.092163,729.442139,534.640076,731.579041C527.723083,741.758362,534.843262,747.850952,545.447754,740.826843z"/>
    <path transform="matrix(0.020707,0,0,-0.020707,128.390167,-91.144653)" style="stroke:#000000;stroke-width:2.414639mm;fill:none" d="M1193.745972,1324.977661C1182.950684,1322.251343,1171.674805,1313.019043,1166.794067,1302.910278C1155.371826,1279.252563,1168.22522,1251.123169,1193.460083,1244.552002C1212.644653,1239.556396,1232.34314,1248.763916,1241.271729,1266.900269C1244.318604,1273.089478,1244.5,1274.078369,1244.5,1284.5C1244.5,1295.056885,1244.349243,1295.848389,1241.068237,1302.513062C1236.776733,1311.230225,1229.998169,1317.944214,1221.294922,1322.0979C1215.744995,1324.746582,1213.228149,1325.325439,1206.072754,1325.598511C1201.357788,1325.778442,1195.810669,1325.499023,1193.745972,1324.977661z"/>
    <path transform="matrix(0.020707,0,0,-0.020707,128.390167,-91.144653)" style="stroke:#000000;stroke-width:2.414639mm;fill:none" d="M1214,1318.926025C1219.870239,1317.465942,1228.223267,1311.772827,1232.231812,1306.5C1236.340454,1301.095581,1240,1291.016479,1240,1285.104736C1240,1275.151367,1233.990601,1262.577148,1226.357178,1256.55835C1224.305176,1254.940308,1219.946899,1252.534302,1216.671875,1251.211426C1208.514526,1247.916626,1197.133179,1248.316528,1188.803467,1252.190796C1181.549561,1255.564819,1174.582642,1262.52356,1171.170166,1269.803467C1168.894897,1274.657471,1168.5,1276.834229,1168.5,1284.520996C1168.5,1292.698486,1168.807373,1294.166382,1171.786743,1300.218384C1179.612061,1316.11377,1196.039063,1323.393677,1214,1318.926025z"/>
    <path transform="matrix(0.020707,0,0,-0.020707,128.390167,-91.144653)" style="stroke:#000000;stroke-width:2.414639mm;fill:none" d="M643,1265.811401C635.335144,1264.628662,624.370056,1259.172241,618.843384,1253.790527C609.238464,1244.437622,604.84613,1234.24939,604.706848,1221C604.600769,1210.917236,606.515259,1204.347534,612.182251,1195.347412C616.849487,1187.935059,622.616211,1183.02356,631.708984,1178.716675C638.182434,1175.650391,639.061218,1175.5,650.5,1175.5C661.907166,1175.5,662.832825,1175.657227,669.23761,1178.681641C681.249817,1184.354126,690.717468,1195.356812,694.406555,1207.931519C697.682007,1219.096436,695.768127,1233.894409,689.712158,1244.228271C683.848999,1254.23291,669.4729,1264.210571,659.068237,1265.496582C650.011292,1266.615967,648.417419,1266.647217,643,1265.811401z"/>
    <path transform="matrix(0.020707,0,0,-0.020707,128.390167,-91.144653)" style="stroke:#000000;stroke-width:2.414639mm;fill:none" d="M663.198608,1258.933105C674.574951,1255.100708,682.042969,1248.346436,687.397339,1237.047363C690.227539,1231.074951,690.5,1229.61731,690.5,1220.44812C690.5,1210.855591,690.329346,1210.051025,686.765259,1202.8396C682.267151,1193.738281,676.476501,1188.06897,667.179626,1183.664551C661.040344,1180.755981,659.69104,1180.502808,650.5,1180.535278C642.556885,1180.563354,639.349243,1181.028931,634.905151,1182.799072C626.81958,1186.019653,617.870239,1194.486816,613.788513,1202.778076C610.673462,1209.105591,610.5,1210.039429,610.5,1220.479004C610.5,1230.34314,610.781311,1232.10022,613.180054,1237.218018C616.094299,1243.435791,623.330444,1251.805054,628.617065,1255.072388C638.518494,1261.191772,652.019531,1262.699097,663.198608,1258.933105z"/>
</svg>
