<svg xmlns="http://www.w3.org/2000/svg" width="598" height="603" xmlns:xlink="http://www.w3.org/1999/xlink"><rect x="0" y="0" width="597.7339" height="602.7012" fill="#ffffff"></rect><path d="M405.1463,174.33c2.7786,1.175 4.9357,4.8406 6.8207,11.5898c1.0005,3.5825 1.4167,6.4185 2.0582,14.027c0.5922,7.0225 0.6323,7.3615 1.3619,11.5065c0.6885,3.9114 1.5376,7.7204 2.416,10.8382c0.6926,2.4582 0.8459,4.4681 0.3983,5.2206c-0.1548,0.2602 -0.7041,0.587 -1.2207,0.7263c-1.3588,0.3663 -3.6564,-0.1154 -8.8168,-1.8483c-6.5321,-2.1936 -7.9018,-2.5131 -17.0326,-3.9733c-1.9427,-0.3107 -5.1218,-0.9457 -7.0646,-1.4112c-1.9427,-0.4654 -4.2729,-1.0163 -5.178,-1.2241c-2.2557,-0.5179 -2.8609,-1.1627 -2.8609,-3.0478c0,-1.2928 2.4975,-11.0807 3.9199,-15.3623c1.1105,-3.3428 4.5226,-10.3269 6.832,-13.9843c4.2205,-6.6838 8.7921,-11.435 12.5124,-13.0038c1.6489,-0.6953 4.2794,-0.7193 5.8541,-0.0533z" fill="#e3e3e3" stroke="#ffffff" stroke-miterlimit="10"></path><path d="M249.9666,181.6675c-2.0967,0.6905 -3.4515,2.5854 -4.1389,5.7889c-0.5033,2.3457 -0.9515,11.0499 -0.7593,14.7435c0.0802,1.5405 0.3604,4.8445 0.6226,7.3422c0.4747,4.5222 0.6136,6.3184 1.3427,17.3628c0.7893,11.9567 0.9209,12.7563 2.3882,14.5104c1.0937,1.3076 2.7472,2.0138 4.6603,1.9905c1.5697,-0.0191 2.8374,-0.3894 6.9638,-2.0343c1.2728,-0.5074 3.3557,-1.2714 4.6285,-1.6977c1.2728,-0.4264 3.4105,-1.2173 4.7503,-1.7575c1.3398,-0.5402 5.2862,-2.0652 8.7698,-3.3888c7.603,-2.8887 10.2199,-4.0726 11.7657,-5.323c1.4211,-1.1495 2.3996,-2.7088 2.6145,-4.1664c0.2971,-2.0151 -1.3563,-6.8907 -3.6579,-10.7863c-1.1859,-2.0072 -4.8466,-6.8842 -7.2244,-9.6246c-2.3087,-2.6608 -10.8161,-11.1477 -14.7038,-14.6682c-4.6224,-4.1859 -9.2031,-7.1709 -12.6492,-8.2427c-1.497,-0.4656 -4.0369,-0.4886 -5.373,-0.0486z" fill="#e3e3e3" stroke="#ffffff" stroke-miterlimit="10"></path><path d="M416.2411,283.8951c-1.8646,0.3522 -3.4826,0.8944 -5.6212,1.8837c-9.4526,4.3725 -16.1106,14.5329 -18.4378,28.137c-0.5439,3.1794 -0.6106,12.1805 -0.1137,15.342c2.0879,13.2839 7.9488,23.5467 16.8413,29.4899c3.7258,2.4901 7.7019,3.7885 12.1852,3.9793c4.6425,0.1975 8.5112,-0.7952 12.6436,-3.2446c8.3987,-4.978 14.2368,-14.8496 16.2547,-27.485c0.5133,-3.2142 0.5785,-11.0058 0.1192,-14.2461c-1.8981,-13.3909 -8.2115,-24.5323 -17.117,-30.2066c-1.9099,-1.2169 -5.5774,-2.815 -7.6374,-3.3279c-1.7128,-0.4265 -7.484,-0.63 -9.1169,-0.3216z" fill="#e3e3e3" stroke="#ffffff" stroke-miterlimit="10"></path><path d="M292.8365,299.8797c10.568,2.4798 19.533,9.9254 24.5535,20.3921c4.0764,8.4985 5.1343,18.2858 2.9372,27.1737c-3.0367,12.284 -11.9373,21.3011 -23.5265,23.8347c-1.3568,0.2966 -2.7413,0.384 -5.913,0.373c-3.6754,-0.0127 -4.4085,-0.0791 -6.5163,-0.5901c-15.373,-3.7269 -27.0806,-18.3903 -28.16,-35.2696c-0.4895,-7.655 0.8045,-14.0375 4.1148,-20.2946c4.5437,-8.5887 12.0469,-14.1954 21.3351,-15.9426c2.4513,-0.4611 8.5888,-0.2835 11.1753,0.3235z" fill="#e3e3e3" stroke="#ffffff" stroke-miterlimit="10"></path><path d="M369.7187,348.1443c2.1138,0.6559 3.4876,2.3582 3.5,4.337c0.0128,2.025 -0.684,2.9946 -4.7119,6.5564c-4.4161,3.9051 -5.0138,4.2867 -6.4805,4.138c-2.1635,-0.2194 -8.2422,-3.8979 -9.9289,-6.0084c-1.4124,-1.7672 -1.2324,-3.9395 0.4614,-5.5687c1.9192,-1.8459 4.5568,-2.3061 7.4746,-1.3041c1.7721,0.6086 2.4454,0.5036 4.3759,-0.6819c1.7088,-1.0494 3.2412,-1.7136 3.9696,-1.7204c0.2815,-0.0026 0.8844,0.1108 1.3398,0.2521z" fill="#e3e3e3" stroke="#ffffff" stroke-miterlimit="10"></path><path d="M370.0569,378.5863c-5,3.8 -10.5323,1.6397 -12.7906,0.656l-1.6323,-1.081l-1.0064,-1.0286c-1.0062,-1.0284 -2.074,-2.7694 -2.3573,-3.8434c-0.1494,-0.5665 -0.1398,-0.5706 1.6331,-0.6925c3.0684,-0.2109 6.0063,-1.5644 8.137,-3.7487l1.1982,-1.2284l0.4791,0.5993c0.2635,0.3296 0.8504,0.9115 1.3042,1.2932c1.8336,1.5421 5.1674,2.7033 7.7615,2.7033c1.1626,0 1.5392,0.0757 1.5392,0.3092c0,0.6406 -0.9303,2.9645 -1.4491,3.6201l-0.5397,0.6819l-2.2768,1.7597" fill="#e3e3e3" stroke="#ffffff" stroke-miterlimit="10"></path><path d="M265.9851,414.7197c16.0197,8.161 35.1024,9.9193 47.1988,11.2784c62.2487,3.5338 100.1687,-3.3979 125.041,-26.2314c7.7471,-5.8443 17.4333,-21.7411 17.3815,-21.7878c-0.0519,-0.0466 0.3496,-1.0628 0.8921,-2.2582c1.2335,-2.7177 2.6382,-6.7746 4.0158,-11.5977l1.0642,-3.7259l1.9907,0.0603c2.8178,0.0854 7.5923,0.9736 12.6063,2.3451c8.2616,2.2599 12.9433,3.9681 17.8953,6.5294c4.0911,2.116 4.9143,2.4318 5.5459,2.1277c0.3514,-0.1692 0.4818,-0.4157 0.4292,-0.8118c-0.0619,-0.4666 -0.5787,-0.8408 -2.877,-2.0832c-5.0408,-2.725 -9.627,-4.5829 -16.078,-6.5133c-7.1162,-2.1294 -12.9033,-3.3793 -16.9389,-3.6584c-1.2445,-0.0861 -2.0623,-0.2385 -2.0623,-0.3843c0,-0.1329 0.157,-0.9813 0.3489,-1.8854c0.3836,-1.8075 1.2396,-7.4017 1.4756,-9.6435c0.2676,-2.5421 0.2194,-2.467 2.2935,-3.577c4.9532,-2.6509 9.1054,-3.6887 20.7297,-5.1815c3.8185,-0.4904 7.2406,-0.9993 7.6046,-1.131c0.364,-0.1317 0.7342,-0.4447 0.8226,-0.6955c0.2215,-0.6278 -0.7249,-1.3135 -1.5854,-1.1485c-0.3464,0.0664 -3.6993,0.5185 -7.4508,1.0045c-7.5755,0.9815 -10.3013,1.4492 -13.4564,2.3089c-2.279,0.6209 -5.3238,1.7888 -7.1499,2.7423l-1.1178,0.5837l0.1129,-14.2744c0.1595,-20.1849 -0.3291,-26.7422 -3.1136,-41.7803c-0.5245,-2.8328 -1.3474,-7.5669 -1.8287,-10.5202c-1.5414,-9.4588 -2.6854,-13.6901 -5.5052,-20.3628c-4.1171,-9.7426 -4.9636,-12.37 -6.4365,-19.9789c-2.5823,-13.3398 -3.9846,-19.1756 -6.9486,-28.9165c-1.7869,-5.8725 -2.7036,-8.3064 -5.7785,-15.342c-3.2497,-7.4354 -4.2007,-9.8214 -7.7598,-19.4675c-5.6834,-15.4036 -7.9031,-19.4959 -12.8031,-23.6042c-3.3475,-2.8066 -7.3235,-3.9432 -11.8464,-3.3864c-4.5673,0.5622 -8.5032,2.385 -14.4197,6.6781c-3.8246,2.7752 -8.858,7.5538 -12.4738,11.8424c-1.9503,2.3132 -5.6626,7.5582 -7.6741,10.8422c-6.3059,10.2958 -9.2755,15.5419 -13.0265,23.013c-2.4218,4.8237 -3.4292,7.1506 -5.3611,12.3832c-0.9346,2.5314 -2.1132,5.3916 -2.6191,6.356c-1.7639,3.3622 -3.7645,5.1997 -6.4594,5.933c-1.7604,0.479 -6.5675,0.6392 -9.9988,0.3334c-6.1629,-0.5493 -9.572,-1.7215 -12.1154,-4.1657c-1.6364,-1.5726 -1.708,-1.6635 -6.3916,-8.1151c-3.6862,-5.0777 -5.5599,-7.3669 -11.8636,-14.4944c-18.7741,-21.2277 -34.8908,-34.5141 -50.5065,-41.637c-4.692,-2.1402 -6.8953,-2.7098 -10.4053,-2.6899c-2.5101,0.0143 -2.6566,0.0418 -3.8301,0.7192c-2.5113,1.4498 -5.2155,4.6055 -7.208,8.4112c-2.1292,4.0668 -3.4897,8.3723 -5.9673,18.8846c-3.8604,16.3793 -4.7178,23.4893 -6.33,52.4915c-0.3397,6.1112 -0.2897,17.1308 0.1239,27.2868c0.1964,4.8218 0.3593,14.29 0.3622,21.0404c0.0062,14.7514 0.2297,19.9066 1.3586,31.3415c0.5095,5.1607 0.8772,7.6971 2.558,17.6433c2.4669,14.5985 4.6791,25.2267 6.943,33.3577c0.4598,1.6514 0.836,3.0913 0.836,3.1998c0,0.1086 -1.0688,0.0152 -2.3752,-0.2076c-5.7877,-0.9869 -7.859,-1.1585 -14.0682,-1.1658c-3.7265,-0.0044 -7.0829,0.1074 -8.648,0.2881c-3.7198,0.4294 -8.6317,1.3082 -10.1295,1.8124c-1.9786,0.666 -3.1299,2.2035 -2.2457,2.9991c0.4729,0.4255 1.0469,0.3061 1.8506,-0.3849c0.9216,-0.7924 2.2973,-1.164 6.8705,-1.8561c7.5283,-1.1394 14.4694,-1.2537 21.4373,-0.3533c3.1057,0.4014 8.0288,1.227 8.1571,1.368c0.0324,0.0356 0.9679,2.5303 2.079,5.5439c1.1111,3.0136 2.4416,6.5041 2.9566,7.7567c0.515,1.2526 0.9364,2.4018 0.9364,2.5537c0,0.1609 -1.4492,0.7074 -3.4714,1.3091c-7.9774,2.3737 -12.0549,4.2554 -21.8806,10.0974c-4.2855,2.548 -6.3168,4.0876 -6.3168,4.7877c0,0.3973 0.6628,1.0013 1.0988,1.0013c0.1833,0 0.8606,-0.4124 1.5051,-0.9165c1.1864,-0.9277 8.6262,-5.4103 12.0497,-7.2602c2.2324,-1.2062 7.1192,-3.4376 8.9795,-4.1003c0.735,-0.2618 3.0704,-1.0067 5.1897,-1.6554l3.8534,-1.1794l0.7667,1.5835c1.675,3.4595 5.1396,9.1534 7.5647,12.4324c4.2109,5.6937 10.3119,10.3038 19.0391,14.3866c1.665,0.7789 2.765,1.4117 2.5579,1.4714" fill="#e3e3e3" stroke="#ffffff" stroke-miterlimit="10"></path></svg>