<svg xmlns="http://www.w3.org/2000/svg" width="598" height="603" xmlns:xlink="http://www.w3.org/1999/xlink"><rect x="0" y="0" width="597.7339" height="602.7012" fill="#ffffff"></rect><path d="M398.5882,84.4905c4.9867,2.1088 8.8581,8.6873 12.241,20.8002c1.7956,6.4294 2.5425,11.5193 3.6939,25.1741c1.0628,12.6032 1.1348,13.2116 2.4442,20.6506c1.2356,7.0197 2.7595,13.8557 4.336,19.4513c1.243,4.4117 1.5182,8.0189 0.7148,9.3694c-0.2778,0.467 -1.2637,1.0535 -2.1908,1.3034c-2.4386,0.6574 -6.5621,-0.207 -15.8234,-3.3172c-11.7231,-3.9369 -14.1813,-4.5103 -30.5682,-7.1308c-3.4866,-0.5576 -9.1921,-1.6973 -12.6787,-2.5326c-3.4866,-0.8353 -7.6685,-1.8239 -9.293,-2.197c-4.0483,-0.9295 -5.1345,-2.0866 -5.1345,-5.4699c0,-2.3201 4.4823,-19.8865 7.035,-27.5706c1.993,-5.9993 8.1166,-18.5336 12.2614,-25.0975c7.5744,-11.9954 15.7791,-20.5222 22.4559,-23.3377c2.9594,-1.2479 7.6802,-1.2909 10.5064,-0.0957z" fill="none" stroke="#000000" stroke-miterlimit="10"></path><path d="M120.0885,97.659c-3.7629,1.2392 -6.1945,4.64 -7.428,10.3893c-0.9033,4.2098 -1.7077,19.8311 -1.3626,26.46c0.1439,2.7648 0.6467,8.6944 1.1173,13.177c0.852,8.1159 1.1013,11.3395 2.4097,31.1608c1.4165,21.4586 1.6527,22.8937 4.286,26.0417c1.9629,2.3467 4.9304,3.6141 8.3639,3.5723c2.817,-0.0343 5.0922,-0.6989 12.4978,-3.651c2.2843,-0.9106 6.0224,-2.2817 8.3067,-3.0469c2.2843,-0.7652 6.1208,-2.1846 8.5253,-3.1542c2.4046,-0.9696 9.4872,-3.7064 15.7391,-6.0818c13.645,-5.1843 18.3415,-7.3091 21.1157,-9.5532c2.5505,-2.063 4.3065,-4.8614 4.6922,-7.4773c0.5332,-3.6164 -2.4342,-12.3667 -6.5648,-19.3581c-2.1283,-3.6023 -8.6982,-12.355 -12.9655,-17.2732c-4.1434,-4.7754 -19.4116,-20.0067 -26.3887,-26.3249c-8.2958,-7.5124 -16.5167,-12.8696 -22.7014,-14.7932c-2.6867,-0.8356 -7.245,-0.8769 -9.6428,-0.0872z" fill="none" stroke="#000000" stroke-miterlimit="10"></path><path d="M418.4999,281.1261c-3.3464,0.6321 -6.2502,1.6052 -10.0884,3.3807c-16.9645,7.8474 -28.9135,26.0821 -33.0902,50.4972c-0.9761,5.706 -1.0958,21.8602 -0.204,27.5341c3.7471,23.8406 14.2657,42.2591 30.2249,52.9253c6.6866,4.4689 13.8225,6.7993 21.8687,7.1416c8.3319,0.3545 15.2749,-1.4272 22.6914,-5.8231c15.0732,-8.934 25.5507,-26.6504 29.1721,-49.327c0.9213,-5.7685 1.0382,-19.7521 0.2139,-25.5674c-3.4065,-24.0325 -14.7371,-44.0279 -30.7196,-54.2116c-3.4277,-2.184 -10.0098,-5.0521 -13.7068,-5.9726c-3.0739,-0.7654 -13.4315,-1.1307 -16.362,-0.5771z" fill="none" stroke="#000000" stroke-miterlimit="10"></path><path d="M197.0268,309.8134c18.9663,4.4505 35.0556,17.813 44.0659,36.5975c7.3159,15.2521 9.2145,32.8174 5.2713,48.7684c-5.45,22.046 -21.4238,38.229 -42.2229,42.7758c-2.4351,0.5323 -4.9198,0.6891 -10.6119,0.6694c-6.5962,-0.0228 -7.9119,-0.1419 -11.6948,-1.059c-27.5898,-6.6886 -48.6013,-33.005 -50.5384,-63.2981c-0.8785,-13.7384 1.4439,-25.193 7.3847,-36.4225c8.1545,-15.414 21.6204,-25.4763 38.2899,-28.6121c4.3993,-0.8276 15.4142,-0.5088 20.0562,0.5805z" fill="none" stroke="#000000" stroke-miterlimit="10"></path><path d="M335.0065,396.4335c3.7936,1.1771 6.2591,4.2322 6.2815,7.7836c0.0229,3.6343 -1.2276,5.3743 -8.4565,11.7668c-7.9255,7.0084 -8.9982,7.6934 -11.6306,7.4264c-3.8827,-0.3937 -14.7921,-6.9955 -17.8194,-10.7832c-2.5348,-3.1716 -2.2118,-7.0703 0.8281,-9.9941c3.4443,-3.3129 8.178,-4.1388 13.4147,-2.3405c3.1804,1.0922 4.3888,0.9038 7.8533,-1.2238c3.0668,-1.8834 5.817,-3.0753 7.1243,-3.0876c0.5051,-0.0048 1.5872,0.1989 2.4046,0.4525z" fill="none" stroke="#000000" stroke-miterlimit="10"></path><path d="M335.6136,451.0675c-8.9735,6.8198 -18.9023,2.9427 -22.9552,1.1773l-2.9294,-1.9401l-1.8062,-1.8461c-1.8058,-1.8457 -3.7222,-4.9702 -4.2307,-6.8977c-0.2682,-1.0168 -0.2508,-1.0241 2.9308,-1.2428c5.5067,-0.3785 10.7795,-2.8077 14.6034,-6.7278l2.1504,-2.2045l0.8599,1.0755c0.473,0.5915 1.5262,1.6359 2.3406,2.3208c3.2907,2.7676 9.274,4.8516 13.9295,4.8516c2.0865,0 2.7624,0.1358 2.7624,0.555c0,1.1496 -1.6696,5.3203 -2.6008,6.4969l-0.9686,1.2239l-4.0861,3.1582" fill="none" stroke="#000000" stroke-miterlimit="10"></path><path d="M148.8367,515.9157c28.7504,14.6465 62.998,17.802 84.7072,20.2413c111.7171,6.342 179.7719,-6.0981 224.4099,-47.0773c13.9037,-10.4887 31.2874,-39.0186 31.1944,-39.1023c-0.0931,-0.0837 0.6275,-1.9074 1.6011,-4.0527c2.2137,-4.8775 4.7347,-12.1583 7.2071,-20.8144l1.9099,-6.6869l3.5726,0.1082c5.057,0.1532 13.6259,1.7472 22.6245,4.2088c14.827,4.0559 23.2292,7.1216 32.1165,11.7183c7.3423,3.7976 8.8196,4.3644 9.9532,3.8185c0.6307,-0.3037 0.8646,-0.7461 0.7703,-1.4569c-0.1112,-0.8374 -1.0386,-1.509 -5.1633,-3.7388c-9.0466,-4.8905 -17.2775,-8.2249 -28.855,-11.6893c-12.7714,-3.8217 -23.1574,-6.0648 -30.4001,-6.5656c-2.2334,-0.1545 -3.7012,-0.428 -3.7012,-0.6896c0.0001,-0.2385 0.2818,-1.7612 0.6262,-3.3837c0.6885,-3.2438 2.2247,-13.2837 2.6482,-17.3072c0.4803,-4.5624 0.3938,-4.4274 4.1162,-6.4196c8.8895,-4.7575 16.3413,-6.6201 37.2035,-9.2992c6.8531,-0.88 12.9946,-1.7935 13.6479,-2.0299c0.6532,-0.2364 1.3176,-0.7981 1.4764,-1.2482c0.3975,-1.1268 -1.301,-2.3573 -2.8453,-2.0612c-0.6217,0.1192 -6.6391,0.9305 -13.372,1.8028c-13.5957,1.7616 -18.4877,2.6009 -24.1501,4.1437c-4.0901,1.1144 -9.5546,3.2103 -12.8318,4.9217l-2.0061,1.0476l0.2025,-25.6181c0.2863,-36.2257 -0.5906,-47.994 -5.5879,-74.9828c-0.9413,-5.084 -2.4182,-13.5802 -3.282,-18.8805c-2.7664,-16.9756 -4.8195,-24.5696 -9.8802,-36.5449c-7.389,-17.485 -8.9081,-22.2003 -11.5515,-35.8559c-4.6344,-23.9408 -7.1511,-34.4142 -12.4706,-51.8962c-3.2069,-10.5394 -4.8522,-14.9074 -10.3707,-27.5341c-5.8321,-13.3443 -7.539,-17.6263 -13.9265,-34.9381c-10.2,-27.6447 -14.1837,-34.9892 -22.9775,-42.3622c-6.0077,-5.037 -13.1434,-7.0768 -21.2606,-6.0776c-8.197,1.0091 -15.2606,4.2804 -25.8789,11.9851c-6.864,4.9806 -15.8974,13.5568 -22.3866,21.2535c-3.5001,4.1515 -10.1627,13.5646 -13.7726,19.4585c-11.3172,18.4777 -16.6466,27.8929 -23.3785,41.3012c-4.3464,8.657 -6.1544,12.8332 -9.6215,22.224c-1.6773,4.5432 -3.7926,9.6763 -4.7006,11.407c-3.1656,6.034 -6.7561,9.3319 -11.5925,10.6478c-3.1593,0.8596 -11.7867,1.1472 -17.9448,0.5983c-11.0605,-0.9859 -17.1788,-3.0895 -21.7434,-7.4761c-2.9368,-2.8223 -3.0654,-2.9854 -11.471,-14.5641c-6.6156,-9.1129 -9.9783,-13.2213 -21.2915,-26.013c-33.6937,-38.0971 -62.6182,-61.9421 -90.6435,-74.7256c-8.4207,-3.841 -12.375,-4.8633 -18.6744,-4.8275c-4.5049,0.0256 -4.7678,0.075 -6.8738,1.2908c-4.507,2.602 -9.3602,8.2654 -12.9362,15.0955c-3.8213,7.2986 -6.2629,15.0257 -10.7095,33.892c-6.9283,29.3958 -8.467,42.156 -11.3604,94.206c-0.6097,10.9678 -0.5198,30.7445 0.2224,48.9714c0.3524,8.6536 0.6449,25.6461 0.65,37.7611c0.0112,26.4742 0.4122,35.7261 2.4383,56.2483c0.9144,9.2619 1.5744,13.814 4.5908,31.6642c4.4274,26.1998 8.3975,45.2742 12.4605,59.8667c0.8252,2.9637 1.5003,5.5479 1.5003,5.7427c0,0.1948 -1.9182,0.0272 -4.2627,-0.3726c-10.3872,-1.7712 -14.1044,-2.0792 -25.2481,-2.0922c-6.6879,-0.0078 -12.7116,0.1928 -15.5205,0.517c-6.6759,0.7706 -15.4913,2.3479 -18.1793,3.2527c-3.551,1.1954 -5.6172,3.9547 -4.0303,5.3824c0.8488,0.7637 1.8788,0.5494 3.3212,-0.6907c1.6539,-1.422 4.1229,-2.089 12.3304,-3.3312c13.5109,-2.0448 25.968,-2.2501 38.4733,-0.634c5.5738,0.7203 14.4092,2.2021 14.6395,2.4551c0.0581,0.0638 1.7371,4.5412 3.7312,9.9497c1.9941,5.4085 4.3819,11.6729 5.3062,13.921c0.9243,2.248 1.6806,4.3104 1.6806,4.583c0,0.2887 -2.6009,1.2696 -6.2301,2.3495c-14.317,4.2601 -21.6348,7.6371 -39.2689,18.1218c-7.6911,4.5729 -11.3366,7.336 -11.3366,8.5925c0,0.713 1.1895,1.797 1.972,1.797c0.3289,0 1.5445,-0.7402 2.7012,-1.6448c2.1291,-1.665 15.4813,-9.7099 21.6256,-13.0297c4.0064,-2.1647 12.7768,-6.1695 16.1155,-7.3588c1.3191,-0.4699 5.5104,-1.8068 9.314,-2.971l6.9157,-2.1167l1.376,2.8418c3.0062,6.2087 9.2239,16.4274 13.5763,22.3124c7.5573,10.2184 18.5067,18.4921 34.1693,25.8196c2.9881,1.3979 4.9624,2.5336 4.5906,2.6406" fill="none" stroke="#000000" stroke-miterlimit="10"></path></svg>