<?xml version="1.0" encoding="UTF-8" standalone="no"?>
<svg xmlns="http://www.w3.org/2000/svg" xmlns:xlink="http://www.w3.org/1999/xlink" width="147.010mm" height="295.076mm" viewBox="99.753662 -188.875732 147.010101 295.076263">
    <path transform="matrix(1,0,0,-1,96.236206,-196.639923)" style="stroke:#000000;stroke-width:0.050000mm;fill:none" d="M105.459785,-22.354776C106.779182,-22.912731,107.80349,-24.653292,108.698555,-27.858164C109.173637,-29.559275,109.371254,-30.905979,109.675896,-34.51881C109.9571,-37.853405,109.976143,-38.014378,110.322594,-39.982616C110.649513,-41.839909,111.052711,-43.648602,111.469826,-45.129101C111.798706,-46.296364,111.871513,-47.250771,111.658958,-47.608089C111.585457,-47.731647,111.3246,-47.886826,111.079308,-47.95295C110.434097,-48.126884,109.343086,-47.898182,106.8927,-47.075272C103.790962,-46.033634,103.140564,-45.881924,98.804863,-45.188583C97.88237,-45.04105,96.372787,-44.739506,95.450287,-44.518501C94.527794,-44.297497,93.421333,-44.035927,92.991516,-43.93721C91.920403,-43.69128,91.633018,-43.385132,91.633018,-42.489967C91.633018,-41.876106,92.818954,-37.228329,93.494362,-35.195244C94.021675,-33.607933,95.641876,-30.291565,96.738525,-28.554865C98.742584,-25.381083,100.913414,-23.125032,102.679985,-22.380098C103.462997,-22.049925,104.712036,-22.038548,105.459801,-22.354776L105.459785,-22.354776z"/>
    <path transform="matrix(1,0,0,-1,96.236206,-196.639923)" style="stroke:#000000;stroke-width:0.050000mm;fill:none" d="M31.773415,-25.838942C30.777813,-26.166813,30.134451,-27.066608,29.808088,-28.587776C29.569092,-29.70162,29.356258,-33.834755,29.447567,-35.588654C29.48564,-36.320171,29.618673,-37.889046,29.743187,-39.075069C29.968611,-41.222401,30.034573,-42.075314,30.380753,-47.319695C30.755533,-52.997284,30.818029,-53.376987,31.514757,-54.209896C32.034107,-54.830791,32.81926,-55.166126,33.727707,-55.155064C34.473034,-55.145988,35.075016,-54.970146,37.034412,-54.189072C37.638802,-53.948143,38.627842,-53.585373,39.232227,-53.382912C39.836617,-53.18045,40.851692,-52.804901,41.487881,-52.548359C42.1241,-52.291821,43.998035,-51.567707,45.652184,-50.939217C49.262424,-49.567539,50.505039,-49.005352,51.239044,-48.411602C51.913868,-47.865765,52.378475,-47.125355,52.480522,-46.433235C52.621601,-45.476395,51.836472,-43.161213,50.743584,-41.311405C50.180473,-40.358299,48.442188,-38.04248,47.313129,-36.741207C46.216854,-35.477715,42.177143,-31.447767,40.33112,-29.776077C38.136189,-27.788424,35.961079,-26.370996,34.324707,-25.862045C33.613853,-25.640959,32.407803,-25.630032,31.773384,-25.838974L31.773415,-25.838942z"/>
    <path transform="matrix(1,0,0,-1,96.236206,-196.639923)" style="stroke:#000000;stroke-width:0.050000mm;fill:none" d="M110.728096,-74.381279C109.84269,-74.548523,109.074394,-74.805984,108.058868,-75.275757C103.570343,-77.352051,100.408836,-82.176643,99.303749,-88.636467C99.045494,-90.146179,99.013824,-94.420311,99.249771,-95.921532C100.241196,-102.229355,103.024239,-107.102585,107.246773,-109.924683C109.015945,-111.107079,110.903984,-111.723656,113.032875,-111.814232C115.237358,-111.90802,117.074356,-111.436623,119.036636,-110.273537C123.024757,-107.909752,125.796928,-103.22229,126.755089,-97.222435C126.998848,-95.69619,127.029778,-91.996361,126.811684,-90.457726C125.910378,-84.099129,122.912491,-78.808678,118.683784,-76.114235C117.776871,-75.536392,116.035362,-74.777534,115.057198,-74.533989C114.243896,-74.331474,111.503448,-74.234825,110.728088,-74.381302L110.728096,-74.381279z"/>
    <path transform="matrix(1,0,0,-1,96.236206,-196.639923)" style="stroke:#000000;stroke-width:0.050000mm;fill:none" d="M52.130005,-81.971451C57.148167,-83.148979,61.405132,-86.684471,63.789104,-91.654541C65.72477,-95.689995,66.227104,-100.337486,65.183807,-104.557846C63.741825,-110.390846,59.515427,-114.672607,54.012329,-115.87561C53.368042,-116.016441,52.710632,-116.05793,51.204601,-116.052719C49.459354,-116.046692,49.111244,-116.015175,48.110352,-115.77253C40.810551,-114.002838,35.251259,-107.039955,34.738735,-99.02491C34.506302,-95.389954,35.120766,-92.359261,36.692608,-89.38813C38.850151,-85.309837,42.413002,-82.64753,46.823475,-81.817848C47.987461,-81.598877,50.901817,-81.683228,52.130013,-81.971436L52.130005,-81.971451z"/>
    <path transform="matrix(1,0,0,-1,96.236206,-196.639923)" style="stroke:#000000;stroke-width:0.050000mm;fill:none" d="M88.637131,-104.889694C89.640854,-105.201134,90.293182,-106.00946,90.29911,-106.949104C90.305168,-107.910683,89.974304,-108.371056,88.061661,-110.062401C85.964699,-111.916702,85.680885,-112.097939,84.98439,-112.027298C83.9571,-111.923126,81.070648,-110.176399,80.269676,-109.17424C79.599014,-108.335091,79.684471,-107.303551,80.488777,-106.529968C81.400085,-105.653427,82.652542,-105.434914,84.038086,-105.910706C84.879562,-106.199684,85.199287,-106.149841,86.115936,-105.586914C86.927361,-105.0886,87.655014,-104.773239,88.000908,-104.769989C88.134544,-104.768723,88.420853,-104.822617,88.637123,-104.889717L88.637131,-104.889694z"/>
    <path transform="matrix(1,0,0,-1,96.236206,-196.639923)" style="stroke:#000000;stroke-width:0.050000mm;fill:none" d="M88.79776,-119.34494C86.423515,-121.149338,83.796516,-120.123528,82.724197,-119.656433L81.94912,-119.14312L81.47123,-118.654671C80.993446,-118.166328,80.486397,-117.33963,80.351852,-116.829651C80.280891,-116.560623,80.285492,-116.558693,81.127289,-116.500832C82.584274,-116.400681,83.979362,-115.757957,84.991104,-114.720764L85.560059,-114.137489L85.787575,-114.42205C85.91272,-114.578545,86.191383,-114.854881,86.40686,-115.036095C87.277527,-115.768356,88.860603,-116.31974,90.092369,-116.31974C90.644424,-116.31974,90.823257,-116.355675,90.823257,-116.466583C90.823257,-116.770752,90.381508,-117.874252,90.135124,-118.185555L89.878853,-118.509377L88.79776,-119.34494z"/>
    <path transform="matrix(1,0,0,-1,0,0)" style="stroke:#000000;stroke-width:0.050000mm;fill:none" d="M174.531982,-106.178467C178.497009,-106.016769,182.41185,-105.231613,186.132568,-103.851807C189.563232,-102.612289,192.824066,-100.945343,195.837891,-98.890381C200.305573,-95.768143,204.140579,-91.826912,207.139648,-87.275635C210.434448,-82.317627,212.766632,-76.78405,214.014648,-70.963379C214.306793,-69.121521,214.483978,-67.263252,214.545166,-65.399414C214.740845,-60.561794,214.846497,-55.720997,214.862061,-50.879395C214.936523,-40.454338,214.967285,-30.013844,214.954102,-19.589111L214.954346,33.829346C214.310028,34.562229,213.652954,35.28326,212.98291,35.992676C212.332352,36.709564,211.495422,37.232048,210.565674,37.501709C209.531799,37.746029,208.443573,37.584087,207.525635,37.049316C206.913147,36.709202,206.348083,36.290024,205.844971,35.80249L203.831543,33.895264L203.459229,-18.655273L203.39209,-28.318848C203.359497,-36.914551,203.270142,-45.514572,203.124268,-54.109619C203.078384,-58.036926,202.921066,-61.962982,202.652588,-65.881592C202.536911,-67.662872,202.296829,-69.433876,201.934082,-71.181641C201.585678,-72.777374,200.986511,-74.30793,200.158936,-75.716064C199.269318,-77.256943,198.337769,-78.772858,197.36499,-80.262695C194.825867,-83.994339,191.499176,-87.124031,187.619629,-89.430908C186.12439,-90.337898,184.567337,-91.13887,182.959961,-91.827881C181.253708,-92.527168,179.452606,-92.967735,177.616211,-93.13501C175.466614,-93.365524,173.303696,-93.44693,171.142822,-93.378662C168.186111,-93.279709,165.269028,-92.66687,162.522461,-91.567627C159.763702,-90.411514,157.222336,-88.793465,155.007568,-86.782959C152.335571,-84.40509,149.997742,-81.676605,148.057617,-78.671631C146.142563,-75.609917,144.769501,-72.240997,143.998779,-68.712891C143.519348,-66.662308,143.201233,-64.577324,143.047363,-62.477051C142.846497,-58.087883,142.73407,-53.69582,142.710205,-49.302002C142.580322,-36.254002,142.537354,-23.181444,142.581055,-10.133545L142.595947,-3.201416L142.618408,4.116699L142.656738,14.871826C142.677246,26.821531,142.746582,38.70414,142.866455,50.656738C142.890991,52.879051,142.929077,55.098965,142.980957,57.321289C145.882141,56.523949,148.834335,55.925224,151.816895,55.529297C153.882889,55.246048,155.954056,54.99678,158.028076,54.781738C164.715073,54.364563,171.418472,54.268982,178.114502,54.495361C180.111755,54.572891,182.106674,54.698166,184.0979,54.871094L184.098633,-0.504883C184.126709,-10.112968,184.098877,-19.696026,184.015381,-29.303467C183.997406,-33.473282,183.877014,-37.641293,183.654297,-41.80542C183.574432,-43.497322,183.382263,-45.182178,183.079102,-46.848633C182.935104,-47.690483,182.663101,-48.505379,182.272461,-49.264893C181.910751,-49.905586,181.397766,-50.448204,180.77832,-50.845215C180.109024,-51.318874,179.414566,-51.755974,178.697998,-52.154541C176.98819,-52.982731,175.080261,-53.313755,173.191406,-53.109863C170.960114,-52.919727,168.843048,-52.040714,167.133301,-50.594482C166.339951,-49.91655,165.69548,-49.081718,165.240479,-48.142578C165.026459,-47.420692,164.892136,-46.677643,164.839844,-45.926514C164.605026,-43.232929,164.457886,-40.532284,164.398682,-37.829102C164.223389,-31.695438,164.10498,-25.569759,164.043213,-19.43335L163.929443,-10.169434C163.880798,-4.676394,163.781433,0.811508,163.631348,6.302979C163.596329,8.2686,163.485413,10.232154,163.298828,12.189209C163.236816,13.022029,163.06871,13.84355,162.798584,14.633789C162.366547,15.579356,161.603073,16.333595,160.652344,16.75415C158.140137,17.897699,155.170578,16.997421,153.716309,14.651367C153.318939,14.022946,153.064835,13.314835,152.971924,12.577148C152.79509,11.30864,152.695053,10.030575,152.672363,8.75C152.568787,4.242598,152.541748,-0.268203,152.591309,-4.776367L152.613525,-9.02002L152.644287,-13.884033L152.881836,-48.841309L154.821289,-52.890869C156.131912,-55.688896,157.9599,-58.213951,160.20874,-60.332764C163.454727,-63.395973,167.622833,-65.299644,172.063477,-65.74707C176.94339,-66.196167,181.81987,-64.851776,185.780273,-61.965576C188.421173,-60.04171,190.635712,-57.592461,192.284668,-54.771729C192.742508,-54.00127,193.162933,-53.209167,193.544434,-52.398193L195.220459,-48.841309L195.446045,13.063721C195.512207,23.980795,195.520508,34.941685,195.471436,45.855469C195.454315,49.408398,195.402069,52.961281,195.314697,56.513184C199.1875,57.32365,202.963608,58.541866,206.579834,60.147461C210.543793,61.916294,214.198105,64.31015,217.403076,67.237549C218.443542,68.06662,219.396866,68.999489,220.248291,70.021729C222.246124,72.397072,224.054413,74.925331,225.656738,77.583496L225.657227,77.612549C225.843643,78.142899,226.059387,78.662537,226.303467,79.168945L226.417725,79.446777C227.022827,80.990349,227.546646,82.564476,227.987061,84.162842L228.492432,85.932129C229.954834,85.919907,231.411606,85.747398,232.836426,85.417725C235.694824,84.800095,238.501938,83.965752,241.233643,82.921875C242.550446,82.363953,243.84375,81.751923,245.110107,81.087402L245.33252,80.980713C245.63089,80.814522,245.954346,80.697639,246.290039,80.634766C246.461777,80.611526,246.631454,80.687981,246.728516,80.831543C246.807999,81.00367,246.754929,81.20858,246.601074,81.319336C246.222977,81.602844,245.818176,81.848801,245.392334,82.053711C242.965103,83.354019,240.405701,84.390846,237.757813,85.146484C235.50827,85.855156,233.208832,86.394836,230.878906,86.760986C230.358292,86.82885,229.835907,86.881805,229.312256,86.919678L229.14502,86.941162C229.009445,86.94973,228.87674,86.983826,228.753174,87.040283L228.735352,87.066162C228.878479,87.880341,229.024353,88.693756,229.173096,89.506836L229.277588,90.173584C229.430084,91.235664,229.574982,92.299309,229.712158,93.363281L229.742432,93.469482C229.83046,93.701958,230.008102,93.889465,230.235352,93.990234C231.900864,94.948769,233.721313,95.609138,235.614014,95.941406C237.465988,96.291718,239.330185,96.57373,241.202881,96.786865L241.838867,96.873047C242.612946,96.957123,243.382599,97.078476,244.14502,97.236572C244.312317,97.293526,244.452454,97.410973,244.535645,97.566895C244.572357,97.73027,244.497696,97.898102,244.352051,97.980713C244.17453,98.109932,243.949158,98.155228,243.735596,98.104248L243.248291,98.03418C241.625534,97.816772,240.071762,97.610229,238.447754,97.395996L237.939697,97.324707C236.261551,97.124985,234.604935,96.773514,232.990234,96.274658C231.931778,95.931145,230.90715,95.490868,229.929443,94.959473L229.989014,102.617676C230.045532,105.938072,229.971771,109.259148,229.767822,112.57373C229.510757,115.595512,229.088989,118.601067,228.504395,121.576904L228.0625,124.053223C227.870728,125.170029,227.685669,126.268021,227.500732,127.38623L227.368652,128.147461C226.87558,131.229401,225.968765,134.231308,224.673096,137.070801L224.358154,137.829102C223.576782,139.622192,222.943054,141.476089,222.463379,143.372314C222.122742,144.891296,221.811462,146.416229,221.529541,147.947266L221.326416,148.951416C220.440399,153.408752,219.265808,157.803802,217.810059,162.108887C217.352417,163.375931,216.851166,164.626709,216.307129,165.859131L215.515137,167.678955C214.49588,170.017303,213.550964,172.387772,212.682129,174.786133L211.989258,176.658447C211.268448,178.674408,210.460251,180.658218,209.567139,182.604004C209.000305,183.858856,208.254074,185.024567,207.351807,186.064697C206.729874,186.756958,206.017044,187.361786,205.232666,187.862549C203.820953,188.707611,202.161057,189.040375,200.532715,188.804688C198.954132,188.59465,197.437531,188.054199,196.081787,187.21875C194.126602,186.061325,192.315613,184.675888,190.687012,183.091553C189.503738,181.98468,188.39859,180.79718,187.379395,179.537598C185.901672,177.627426,184.544785,175.626801,183.31665,173.547363C181.07486,169.942505,179.026093,166.220947,177.179199,162.398682C176.513733,160.979599,175.91571,159.52977,175.387207,158.054199L175.039551,157.139893C174.774597,156.424774,174.475571,155.722687,174.143555,155.036133C173.736084,154.178955,173.135284,153.427933,172.388428,152.842285C171.749619,152.386597,170.9944,152.121674,170.210938,152.077881C167.979431,151.862549,165.728043,152.003357,163.540771,152.495117C162.536087,152.714218,161.59845,153.171448,160.807129,153.828125C160.193481,154.369583,159.646179,154.981979,159.176758,155.652344C158.519714,156.539536,157.86676,157.43367,157.22168,158.32959L156.918701,158.741211C155.664948,160.421707,154.336288,162.045013,152.936768,163.606201C149.846222,167.195969,146.569321,170.621017,143.119629,173.867188C140.359894,176.469193,137.397369,178.847198,134.26001,180.97876C131.810272,182.648209,129.19133,184.054932,126.446777,185.175537C125.223717,185.674026,123.904579,185.894135,122.585938,185.81958C122.278175,185.833679,121.969948,185.803299,121.670898,185.729248C120.964302,185.416336,120.329956,184.961136,119.807373,184.391846C118.798233,183.324387,117.977036,182.093903,117.378418,180.752441C116.758331,179.354309,116.258224,177.905975,115.883545,176.423096C114.971146,173.002686,114.193832,169.548126,113.553223,166.06665C113.019653,162.800064,112.647278,159.509003,112.4375,156.205811C112.181183,152.719376,111.979095,149.227509,111.831543,145.734863C111.757736,141.716736,111.812454,137.697403,111.995605,133.682861L112.027588,132.561768C112.110535,128.753983,112.150757,124.946518,112.148193,121.137695L112.160156,120.130127C112.224823,115.22216,112.612946,110.323914,113.322021,105.467041C114.0979,100.428574,115.01886,95.41304,116.083496,90.427734C116.567352,88.298882,117.099426,86.180519,117.678955,84.075684L117.687256,84.027588L117.664063,84.012695C117.369423,84.006706,117.074997,84.032448,116.785889,84.0896L116.063721,84.209717C114.022446,84.567192,111.951019,84.724602,109.87915,84.679688C108.508934,84.700478,107.138496,84.654846,105.772705,84.542969C104.34314,84.383392,102.923218,84.146469,101.519287,83.833252C100.997231,83.753136,100.506744,83.531471,100.101807,83.192383C99.914757,83.044464,99.790573,82.831299,99.753662,82.595703C99.746361,82.392494,99.878983,82.210632,100.074707,82.155518C100.279037,82.127159,100.485115,82.19117,100.636963,82.330811L100.775146,82.441162C101.123421,82.697227,101.525024,82.870895,101.950195,82.948975C105.573402,83.707664,109.28714,83.936356,112.976074,83.62793C114.651588,83.466141,116.317482,83.216446,117.966797,82.879883C118.010063,82.874733,118.051811,82.860962,118.090332,82.840576C118.83606,80.871124,119.566284,78.934418,120.306152,76.962891L120.431152,76.648438L120.570801,76.304932C120.713959,75.983437,120.832726,75.651588,120.926025,75.312256L120.918213,75.295898L120.894531,75.275391C120.59185,75.113693,120.271744,74.98687,119.94043,74.897461C119.491821,74.751923,119.040977,74.613235,118.588135,74.481445L117.935059,74.274658C115.605972,73.519058,113.365898,72.512199,111.254639,71.271973C109.818008,70.481766,108.413498,69.634575,107.044434,68.732422C106.65287,68.49099,106.297935,68.194435,105.990723,67.852051C105.879395,67.755753,105.858002,67.590317,105.940674,67.468506C106.039009,67.276199,106.237137,67.155029,106.453125,67.155762C106.718445,67.278061,106.965149,67.43721,107.186035,67.628418L107.357422,67.748047C109.365341,69.061249,111.434464,70.278259,113.557861,71.39502C114.764847,72.011246,116.005981,72.558289,117.275146,73.033447C118.646484,73.480751,120.022324,73.910316,121.404541,74.322754L121.768555,73.570801C122.899338,71.320824,124.230515,69.177467,125.746094,67.166504C127.189606,65.40834,128.922791,63.909561,130.87085,62.734863C131.258026,62.492939,131.651367,62.261097,132.050537,62.039551C131.884277,53.885384,131.806152,45.720703,131.816406,37.564453L131.810791,34.544434L131.807373,31.363525L131.806152,28.018555L131.807129,24.506592L131.814941,16.969482L131.830566,8.727783L131.854248,-0.242432L132.071533,-70.973145C132.879517,-73.182785,133.707336,-75.385605,134.554443,-77.580322C136.107498,-81.603104,138.16217,-85.41375,140.669678,-88.921875C144.436752,-94.125206,149.352371,-98.39061,155.034668,-101.386719C158.612518,-103.333374,162.461792,-104.733109,166.454346,-105.539307C169.113419,-106.06189,171.823837,-106.276321,174.531982,-106.178467z"/>
</svg>
